<?xml version="1.0" standalone="no"?>
<!DOCTYPE svg PUBLIC "-//W3C//DTD SVG 20010904//EN"
 "http://www.w3.org/TR/2001/REC-SVG-20010904/DTD/svg10.dtd">
<svg version="1.0" xmlns="http://www.w3.org/2000/svg"
 width="2299.000000pt" height="2299.000000pt" viewBox="0 0 2299.000000 2299.000000"
 preserveAspectRatio="xMidYMid meet">
<metadata>
Created by potrace 1.11, written by Peter Selinger 2001-2013
</metadata>
<g transform="translate(0.000000,2299.000000) scale(0.100000,-0.100000)"
fill="#000000" stroke="none">
<path d="M18125 19513 c-189 -29 -372 -83 -513 -150 -105 -50 -236 -160 -281
-236 -25 -41 -51 -53 -51 -21 0 18 -9 18 -31 -2 -16 -15 -17 -14 -12 4 7 29
-14 36 -28 10 -6 -13 -13 -24 -14 -26 -2 -2 -15 8 -30 22 -15 14 -37 24 -49
23 -19 -2 -21 3 -19 42 2 39 1 42 -12 25 -13 -17 -14 -17 -15 -2 0 11 -5 15
-14 12 -8 -3 -19 3 -25 14 -14 27 -56 33 -78 13 -18 -18 -38 -18 -133 1 -30 6
-70 10 -87 9 -19 -1 -33 2 -33 8 0 8 21 10 62 7 57 -4 61 -3 43 11 -40 30 -53
33 -59 17 -4 -10 -13 -13 -25 -9 -10 3 -29 2 -41 -3 -16 -6 -32 -4 -49 5 -14
7 -33 13 -42 13 -9 0 -28 9 -43 21 -18 14 -33 18 -48 13 -20 -6 -21 -5 -10 8
10 13 9 16 -8 21 -11 3 -20 0 -21 -6 0 -7 -4 -2 -9 11 -9 22 -40 31 -40 11 0
-5 -4 -8 -9 -5 -21 13 -43 -7 -39 -34 5 -33 -20 -36 -39 -5 -11 18 -12 16 -13
-20 -1 -34 -3 -37 -10 -17 -10 24 -26 29 -33 10 -4 -10 -6 -10 -6 0 -1 6 -6
12 -12 12 -6 0 -8 -7 -5 -16 4 -10 2 -13 -7 -7 -6 4 -18 8 -26 10 -8 1 -18 8
-22 15 -6 9 -9 6 -9 -11 l0 -25 -20 22 c-25 27 -49 30 -29 5 12 -16 11 -16 -8
0 -25 22 -37 10 -27 -28 6 -25 -10 -36 -19 -12 -4 9 -8 9 -15 -1 -7 -11 -10
-11 -15 2 -9 23 -30 20 -24 -4 7 -27 -1 -25 -12 3 -9 22 -51 36 -51 16 0 -6
-5 -7 -12 -3 -7 5 -9 0 -6 -14 7 -26 -13 -35 -29 -13 -11 14 -12 11 -13 -17 0
-18 -4 -31 -9 -28 -12 8 -20 56 -9 56 17 0 3 23 -16 26 -14 2 -17 -2 -12 -22
8 -29 -3 -76 -15 -68 -5 3 -9 1 -9 -5 0 -5 5 -13 10 -16 15 -10 12 -35 -5 -35
-8 0 -32 16 -52 35 -20 19 -40 35 -45 35 -7 0 -4 -23 8 -55 7 -18 6 -18 -9 -6
-23 18 -24 -5 -1 -30 16 -18 11 -44 -7 -34 -11 8 -11 7 0 -33 10 -34 -1 -44
-18 -15 -15 27 -22 11 -11 -26 7 -25 6 -30 -3 -23 -24 20 -82 18 -74 -2 4 -10
1 -13 -7 -10 -9 3 -13 -4 -12 -23 1 -39 -31 -56 -59 -30 -20 18 -20 18 -29 -6
-13 -35 -44 -41 -68 -14 -12 14 -21 18 -24 11 -3 -7 -14 -10 -24 -7 -22 6 -25
-7 -9 -40 10 -21 10 -21 -5 -3 -9 11 -16 14 -16 8 0 -16 -31 -10 -63 11 -35
23 -51 22 -44 -4 l5 -20 -34 20 c-41 25 -58 27 -51 7 4 -10 1 -13 -8 -10 -7 3
-15 14 -18 25 -3 10 -11 19 -17 19 -8 0 -10 -8 -5 -22 3 -13 8 -35 9 -49 1
-14 6 -32 10 -40 4 -8 -11 6 -34 31 l-41 45 7 -35 c3 -19 11 -41 16 -47 6 -7
11 -31 12 -53 1 -30 -2 -39 -12 -35 -23 9 -32 -4 -22 -30 11 -28 -1 -33 -20
-10 -7 8 -16 15 -21 15 -5 0 -6 -7 -3 -15 4 -8 2 -15 -4 -15 -5 0 -15 7 -22
15 -7 8 -24 15 -38 15 l-25 0 21 -23 c27 -28 28 -39 5 -30 -11 4 -1 -15 25
-46 39 -50 49 -77 20 -54 -7 6 -20 10 -28 10 -26 0 -124 25 -154 40 -37 19
-21 38 19 23 15 -6 30 -8 33 -6 3 3 -1 8 -9 11 -138 50 -279 96 -337 110 -62
15 -70 19 -56 30 10 7 14 17 9 24 -5 9 -13 7 -29 -7 -14 -14 -62 -29 -147 -46
-137 -28 -174 -31 -184 -16 -4 6 8 10 29 10 26 0 36 4 36 16 0 14 -12 15 -97
8 -156 -13 -168 -12 -168 11 0 34 58 55 150 55 44 0 96 -4 114 -10 19 -5 37
-7 40 -5 10 10 -71 113 -102 130 -27 14 -47 16 -98 11 -202 -20 -256 -19 -354
3 -52 13 -93 26 -90 30 2 4 43 11 91 14 48 3 89 9 92 12 11 11 -44 57 -104 86
-38 19 -103 38 -170 51 -60 11 -161 30 -224 43 -63 12 -117 20 -120 17 -3 -2
2 -7 10 -10 8 -3 69 -32 134 -66 127 -64 210 -130 204 -163 -6 -31 -62 -52
-111 -41 -52 12 -157 4 -219 -17 -46 -16 -46 -16 -73 11 -27 27 -27 27 -133
21 -59 -4 -119 -9 -133 -13 -25 -6 -26 -4 -32 51 -3 31 -8 59 -11 62 -3 3 -26
-3 -53 -13 -35 -13 -69 -39 -126 -98 l-78 -81 -68 2 c-88 2 -146 27 -206 88
-42 44 -48 47 -82 40 -85 -16 -94 -41 -30 -78 61 -36 73 -52 56 -74 -23 -27
-78 -44 -193 -59 -150 -20 -270 -62 -474 -165 -140 -72 -178 -87 -202 -82 -35
7 -36 10 -10 43 11 14 20 31 20 38 0 30 -40 6 -98 -58 -35 -39 -67 -70 -71
-70 -4 0 -12 10 -18 22 l-10 22 -26 -26 c-18 -18 -27 -38 -27 -60 0 -45 -31
-92 -79 -120 -23 -13 -41 -29 -41 -35 0 -31 -49 -45 -197 -54 -248 -15 -369
-54 -452 -145 -23 -24 -46 -42 -51 -39 -6 4 -10 28 -10 55 0 27 -5 52 -11 56
-14 8 -178 -153 -264 -260 -35 -43 -90 -129 -121 -191 -53 -101 -63 -115 -103
-136 -25 -13 -71 -40 -102 -60 -31 -20 -82 -44 -113 -53 -31 -9 -56 -21 -56
-26 0 -13 4 -13 47 5 19 8 52 15 73 15 56 0 74 -26 78 -115 4 -74 -22 -273
-37 -288 -5 -5 -11 20 -15 55 -11 108 -27 171 -58 231 -22 41 -36 57 -51 57
-20 0 -20 0 1 -23 23 -24 30 -57 12 -57 -5 0 -10 5 -10 10 0 6 -4 10 -9 10 -6
0 -11 -19 -13 -42 l-3 -42 -30 45 c-16 24 -31 46 -32 48 -9 14 -11 -10 -3 -39
9 -30 7 -37 -17 -62 -15 -15 -34 -30 -43 -33 -13 -4 -19 -22 -24 -67 -9 -80
-38 -155 -82 -212 -86 -112 -169 -100 -316 46 l-80 79 33 22 c27 18 41 40 66
107 18 47 34 90 36 95 2 6 9 -8 15 -30 13 -47 48 -84 109 -114 22 -11 53 -35
68 -53 24 -29 26 -30 18 -8 -4 14 -8 58 -8 98 0 71 0 72 -26 72 -14 0 -46 7
-72 16 -41 14 -45 18 -37 34 13 25 13 105 -1 155 -10 36 -13 38 -23 21 -30
-51 -53 -69 -77 -63 -14 4 -65 47 -114 97 -50 50 -113 107 -142 128 -56 40
-60 52 -21 66 18 6 35 3 64 -10 40 -19 118 -90 147 -133 21 -32 29 -23 17 19
-29 100 -98 146 -269 180 -109 22 -137 33 -186 74 l-30 25 45 -6 45 -6 -58 31
c-31 17 -91 56 -132 87 -116 88 -187 182 -104 139 61 -31 39 -5 -38 46 -176
117 -454 235 -673 286 -124 29 -321 43 -370 25 -18 -6 -35 -9 -38 -6 -7 6 45
90 80 131 17 19 28 37 25 41 -6 5 -494 -233 -664 -325 -85 -46 -91 -48 -82
-26 5 14 13 82 19 152 13 173 30 225 90 276 32 26 103 51 124 43 7 -3 18 -46
25 -104 7 -55 16 -115 20 -133 l7 -34 137 134 c76 73 136 134 134 136 -2 2
-30 -6 -63 -17 -82 -29 -138 -23 -252 30 -52 24 -117 50 -145 57 -72 19 -227
30 -227 16 0 -6 5 -14 10 -17 35 -21 59 -170 32 -197 -10 -10 -26 1 -84 60
-39 41 -99 92 -132 114 -34 23 -87 61 -118 85 -32 24 -58 40 -58 34 0 -5 5
-13 10 -16 18 -11 10 -51 -20 -97 -31 -47 -109 -98 -150 -98 -19 0 -21 4 -15
33 19 94 38 155 56 180 11 15 18 27 16 27 -2 0 -79 -29 -172 -65 -92 -36 -168
-65 -169 -65 0 0 0 21 2 48 3 38 -3 60 -30 112 -33 63 -35 65 -68 62 -19 -1
-96 6 -170 18 -144 21 -250 26 -235 11 6 -5 33 -19 60 -30 l50 -20 -68 0
c-122 -1 -194 -35 -363 -170 -46 -37 -108 -79 -138 -94 -52 -26 -166 -61 -173
-53 -2 2 1 15 7 30 14 39 12 131 -4 171 -8 18 -26 41 -41 51 -27 18 -101 35
-120 28 -6 -3 -42 -64 -79 -137 -230 -442 -306 -573 -381 -655 l-36 -41 -41
15 c-49 17 -48 17 -140 -89 -64 -74 -62 -77 -32 48 40 164 158 415 268 569 35
49 101 129 146 177 77 84 80 89 54 89 -15 0 -54 5 -85 12 -53 11 -64 10 -134
-14 -67 -23 -77 -24 -82 -10 -9 21 44 64 132 108 64 32 67 35 30 29 -69 -12
-264 -74 -413 -132 -139 -55 -143 -57 -137 -82 7 -35 -29 -89 -139 -210 -47
-52 -92 -108 -101 -126 -16 -35 -20 -67 -9 -78 4 -4 71 56 149 132 151 145
311 280 334 281 23 0 8 -92 -27 -162 -76 -153 -254 -369 -383 -464 -78 -57
-109 -31 -129 108 -20 136 -22 140 -57 80 -29 -50 -161 -201 -206 -235 l-37
-28 35 77 c19 42 35 78 35 81 0 2 -13 -3 -29 -12 -45 -23 -93 -89 -160 -222
-83 -162 -119 -196 -326 -297 -137 -68 -155 -80 -155 -101 0 -23 4 -25 50 -25
112 0 290 -86 444 -214 54 -45 126 -131 126 -151 0 -14 -373 -264 -438 -293
-24 -11 -53 -17 -63 -15 -33 9 -66 59 -104 157 -20 52 -44 101 -54 110 -11 10
-36 16 -66 16 -42 0 -52 -4 -81 -36 -48 -51 -42 -60 12 -19 26 20 52 34 58 32
15 -5 27 -65 21 -104 -7 -37 -23 -46 -64 -30 -27 10 -33 8 -55 -12 -35 -33
-50 -74 -37 -99 18 -33 13 -56 -24 -128 -19 -37 -35 -68 -35 -70 0 -12 24 0
55 27 19 17 35 28 35 25 0 -21 -37 -87 -89 -159 -32 -45 -71 -106 -85 -134
-22 -45 -24 -53 -10 -53 9 0 32 -16 50 -35 41 -44 78 -154 93 -281 14 -113 7
-154 -24 -154 -45 0 -87 -13 -92 -29 -3 -9 -17 -45 -32 -79 -21 -52 -32 -66
-59 -78 -18 -7 -31 -17 -28 -22 3 -5 -21 -17 -52 -27 -126 -39 -224 -109 -209
-149 7 -17 -19 -40 -58 -53 -17 -5 -40 -25 -54 -45 -21 -33 -26 -36 -50 -27
-14 6 -28 15 -32 21 -11 17 -30 -54 -23 -89 5 -25 3 -33 -8 -33 -11 0 -13 -9
-10 -31 l5 -31 -31 16 c-17 9 -32 21 -34 28 -9 26 -58 -10 -78 -57 -16 -36
-24 -45 -45 -45 -27 0 -32 -9 -13 -28 16 -16 43 -15 58 3 7 8 16 15 20 15 14
0 20 -31 10 -51 -9 -16 -22 -19 -73 -19 -84 0 -105 -7 -123 -41 -8 -16 -25
-31 -38 -35 -15 -3 -27 -16 -31 -32 -5 -20 -8 -23 -15 -12 -5 8 -12 11 -16 7
-4 -3 -1 -14 6 -22 11 -13 9 -19 -9 -38 -11 -13 -21 -31 -21 -41 0 -10 -5 -14
-11 -10 -6 3 -15 0 -20 -7 -6 -10 -9 -11 -9 -1 0 6 -4 12 -10 12 -5 0 -10 -6
-10 -14 0 -8 -16 -23 -35 -35 -19 -11 -35 -28 -35 -37 0 -15 2 -16 18 -2 15
14 20 14 45 -2 26 -16 27 -19 12 -34 -11 -10 -33 -16 -65 -16 -39 0 -52 -4
-64 -22 -19 -26 -21 -47 -4 -30 7 7 19 12 28 12 8 -1 -2 -10 -22 -21 -42 -21
-53 -59 -19 -59 14 0 18 -5 14 -19 -3 -10 0 -22 6 -25 16 -11 13 -24 -5 -22
-9 0 -21 -7 -27 -16 -9 -14 -7 -22 11 -41 30 -32 28 -46 -3 -17 -21 19 -25 21
-25 7 0 -20 -11 -22 -28 -5 -9 9 -12 5 -12 -22 0 -18 -8 -42 -18 -53 -11 -13
-13 -21 -6 -24 46 -16 60 -54 22 -58 -16 -2 -28 1 -28 6 0 5 6 9 12 9 7 0 3
10 -9 22 -18 17 -25 19 -36 9 -22 -17 -30 -71 -13 -85 8 -6 17 -21 21 -33 5
-19 3 -22 -11 -16 -14 5 -16 2 -12 -15 8 -29 -8 -28 -36 3 l-23 24 1 -42 c1
-39 -1 -42 -27 -45 l-29 -4 7 -81 c7 -81 7 -82 -12 -64 -24 21 -33 22 -33 3 0
-8 11 -17 25 -20 31 -8 31 -19 4 -63 -13 -20 -22 -51 -22 -73 0 -35 -3 -40
-28 -45 -45 -10 -36 -33 13 -37 37 -3 44 -7 46 -27 4 -22 1 -24 -32 -18 -42 7
-45 -4 -16 -48 11 -16 19 -41 19 -55 -1 -17 -3 -19 -6 -7 -5 20 -14 22 -32 5
-13 -13 -19 -9 -47 38 -7 12 -16 15 -28 11 -17 -7 -16 -9 8 -32 22 -20 26 -33
26 -79 0 -30 5 -58 10 -61 7 -4 7 -12 0 -25 -8 -15 -3 -24 30 -50 34 -27 38
-34 29 -51 -9 -17 -13 -18 -26 -7 -15 11 -16 10 -9 -12 11 -35 7 -104 -5 -109
-6 -2 3 -12 21 -22 17 -11 28 -24 25 -30 -4 -5 -1 -16 5 -24 9 -11 9 -15 1
-15 -6 0 -17 11 -23 25 -9 19 -16 24 -32 19 -30 -9 -31 -12 -18 -46 12 -32 6
-60 -8 -38 -15 23 -51 -1 -71 -47 -10 -24 -19 -47 -19 -49 0 -2 19 9 42 26 53
39 74 39 80 0 3 -19 0 -31 -10 -35 -9 -3 -12 -13 -9 -25 4 -17 0 -20 -25 -20
-30 0 -31 0 -13 -20 10 -11 26 -22 36 -25 25 -8 15 -24 -27 -41 -39 -16 -49
-51 -11 -40 47 15 52 13 49 -22 -2 -21 6 -49 22 -78 22 -39 23 -45 8 -43 -30
3 -31 -1 -8 -26 13 -14 32 -25 43 -25 11 0 26 -7 33 -15 10 -12 8 -21 -10 -50
-12 -20 -20 -45 -17 -55 4 -15 0 -20 -14 -20 -30 0 -23 -15 31 -63 l51 -46
-21 -33 c-21 -35 -26 -53 -11 -44 5 3 14 -1 22 -10 10 -13 9 -16 -9 -21 -22
-5 -31 -23 -13 -23 6 0 6 -12 0 -32 -13 -47 -14 -45 48 -77 32 -16 78 -44 103
-62 l44 -32 -34 -13 c-48 -17 -57 -17 -64 4 -9 25 -56 87 -56 73 0 -6 -7 -11
-15 -11 -22 0 -19 -10 12 -42 18 -19 24 -32 17 -36 -6 -4 -13 -18 -17 -30 -5
-21 -3 -23 16 -18 26 6 40 -1 56 -31 15 -30 14 -43 -4 -37 -8 4 -15 12 -15 20
0 8 -5 14 -11 14 -24 0 -3 -44 26 -54 17 -6 32 -18 34 -26 2 -8 6 -23 8 -32 3
-10 0 -18 -6 -18 -30 0 9 -113 56 -163 l27 -27 -32 0 c-17 0 -33 -4 -36 -9 -3
-5 49 -15 115 -22 l121 -12 -59 -25 c-32 -13 -76 -26 -98 -29 l-40 -4 48 26
c27 15 47 29 44 32 -3 3 -39 2 -79 -2 -61 -6 -69 -9 -50 -18 16 -7 22 -19 22
-40 0 -17 7 -39 16 -48 16 -18 18 -18 42 1 38 31 43 24 17 -22 -32 -56 -31
-60 11 -42 20 8 43 13 52 12 10 -3 1 -9 -23 -17 -58 -19 -61 -27 -14 -35 l43
-7 -33 -20 c-22 -13 -31 -25 -27 -35 3 -9 9 -26 12 -39 4 -15 13 -23 27 -24
60 -2 148 -18 159 -29 9 -9 8 -12 -5 -12 -10 0 -35 -9 -55 -19 -37 -19 -38
-19 -62 0 -29 22 -51 24 -68 7 -20 -20 -14 -38 14 -38 14 0 23 -4 19 -10 -3
-5 -1 -10 5 -10 7 0 14 9 17 19 6 22 33 17 33 -5 0 -12 17 -14 103 -8 l103 7
12 -27 c7 -15 12 -30 12 -33 0 -6 -141 4 -198 14 -30 5 -33 3 -38 -26 -7 -34
-13 -38 -32 -19 -16 16 -16 -17 -1 -61 9 -24 17 -31 38 -31 34 0 134 -63 108
-68 -26 -5 -21 -31 8 -38 41 -10 48 -27 29 -73 -9 -23 -14 -44 -11 -47 2 -3
35 18 72 46 57 43 172 110 190 110 3 0 5 -9 5 -20 0 -13 -14 -25 -45 -39 -25
-11 -45 -25 -45 -30 0 -16 8 -14 46 10 37 23 39 21 23 -15 -12 -26 -35 -38
-105 -56 -39 -9 -54 -25 -54 -53 0 -7 5 -4 11 6 5 9 15 17 21 17 7 0 6 -5 -2
-15 -14 -17 -5 -36 15 -29 8 4 18 -1 21 -10 5 -13 9 -14 20 -5 11 9 14 6 14
-16 0 -24 3 -26 23 -20 12 4 46 10 76 12 49 5 52 3 43 -13 -6 -10 -6 -24 -1
-33 10 -20 59 -145 59 -154 0 -3 -7 -13 -16 -21 -13 -14 -14 -16 0 -16 8 0 17
-4 20 -9 4 -5 -2 -7 -12 -4 -10 2 -24 -3 -31 -11 -12 -14 -10 -16 7 -16 11 0
36 -7 55 -15 47 -19 47 -19 47 10 0 17 -8 29 -25 37 -14 6 -25 15 -25 19 0 14
84 25 130 17 55 -10 68 -22 49 -44 -12 -14 -10 -19 10 -35 14 -12 39 -19 64
-19 39 0 66 -19 67 -47 0 -7 -18 -25 -41 -40 -45 -30 -59 -23 -59 30 0 15 -4
27 -10 27 -5 0 -10 -7 -10 -15 0 -20 -17 -19 -29 3 -9 15 -10 15 -11 -4 0 -12
28 -65 63 -117 53 -83 66 -96 87 -94 19 1 24 7 23 23 -5 46 126 37 135 -9 3
-16 1 -17 -17 -5 -17 10 -23 10 -33 -1 -11 -12 -10 -13 4 -8 13 5 18 1 18 -12
0 -35 12 -51 36 -51 19 0 24 5 24 25 0 28 12 32 30 10 10 -12 10 -15 -4 -15
-23 0 -20 -29 6 -51 32 -26 39 -24 32 9 -6 26 -6 26 35 -13 31 -29 41 -46 39
-65 -2 -14 -9 -25 -18 -25 -11 0 -14 8 -12 29 4 28 3 28 -19 12 -13 -9 -37
-16 -54 -16 -30 0 -55 -15 -55 -32 0 -4 7 -8 15 -8 8 0 12 -6 9 -14 -4 -10 2
-12 20 -9 17 4 28 -1 38 -16 19 -30 32 -26 76 24 l39 45 19 -21 c10 -12 17
-32 16 -45 -3 -21 1 -24 27 -24 25 0 41 -13 99 -82 48 -57 67 -88 62 -98 -4
-8 -10 -27 -14 -42 -5 -22 -3 -28 11 -29 11 0 13 -3 6 -6 -21 -8 -14 -22 8
-16 16 4 19 11 14 27 -4 11 -9 32 -12 46 -6 25 -6 25 16 6 11 -11 21 -30 21
-42 0 -15 5 -22 13 -18 7 2 22 -4 32 -16 18 -20 8 -29 -11 -10 -6 6 -19 8 -29
4 -16 -7 -15 -10 10 -30 37 -29 42 -66 8 -58 -35 9 -27 -12 10 -24 18 -5 24
-10 14 -11 -15 -1 -11 -8 17 -35 20 -18 50 -39 66 -46 17 -7 30 -16 30 -21 0
-14 -41 -21 -88 -14 -44 6 -46 6 -27 -9 16 -13 17 -15 3 -10 -22 8 -24 -12 -2
-20 25 -10 36 -7 28 7 -6 8 -3 8 9 -2 10 -8 27 -11 41 -7 19 5 28 1 36 -14 6
-11 18 -20 26 -20 8 0 12 4 9 10 -3 6 1 7 9 4 9 -3 13 -10 10 -15 -3 -6 0 -16
6 -24 10 -12 9 -15 -4 -15 -9 0 -16 6 -16 14 0 8 -12 17 -26 20 -20 5 -31 1
-51 -20 -13 -14 -23 -27 -21 -28 2 0 18 -9 37 -19 28 -14 36 -15 43 -5 7 10 9
10 5 -2 -2 -8 -16 -16 -31 -18 -20 -3 -26 0 -21 9 5 7 3 10 -4 8 -7 -3 -12 -8
-11 -13 1 -4 -7 -14 -17 -22 -17 -12 -17 -13 0 -14 9 0 17 -7 17 -15 0 -10 8
-15 23 -14 50 5 167 -2 167 -9 0 -4 -21 -6 -47 -4 -36 2 -44 0 -33 -7 8 -6 23
-11 33 -11 10 0 17 -8 17 -20 0 -17 -5 -19 -25 -14 -15 4 -25 2 -25 -5 0 -6
-8 -11 -17 -11 -15 0 -16 2 -3 10 11 7 8 9 -15 9 -16 -1 -41 -4 -55 -8 -41
-11 -3 -18 85 -16 104 3 98 2 92 24 -3 12 1 22 10 25 27 11 38 5 19 -9 -20
-15 -20 -15 0 -14 10 1 33 5 49 8 l30 8 -45 13 c-35 10 -41 14 -25 19 16 5 21
15 21 51 1 32 6 46 17 48 10 2 17 -6 20 -25 l4 -28 14 33 c14 35 30 44 22 13
-6 -23 16 -39 28 -20 7 11 9 9 10 -6 1 -11 5 5 9 35 l7 55 1 -52 c2 -60 26
-100 49 -81 10 8 13 6 13 -10 0 -11 6 -25 14 -31 12 -10 15 -6 19 26 l4 38 1
-42 c2 -46 28 -62 34 -21 3 25 28 37 28 14 0 -10 6 -13 15 -10 11 4 15 0 15
-16 0 -13 5 -20 13 -17 6 2 12 9 12 15 0 5 4 14 9 19 5 4 5 -7 1 -26 -5 -23
-4 -31 4 -27 6 4 11 0 11 -8 0 -19 16 -21 23 -3 3 6 6 3 7 -8 1 -19 2 -18 10
2 13 33 37 18 45 -28 4 -21 10 -37 15 -34 5 3 11 -1 13 -7 3 -7 6 -3 6 9 1 26
52 78 62 62 3 -6 9 3 12 20 7 35 23 41 32 11 4 -11 10 -18 14 -15 5 2 6 -6 4
-19 -3 -13 2 -36 10 -52 l14 -27 13 38 c12 36 14 38 21 17 6 -15 1 -53 -13
-112 -21 -85 -24 -90 -54 -100 -43 -14 -100 -79 -113 -127 -6 -21 -13 -65 -17
-98 -7 -58 -10 -63 -82 -137 -41 -42 -71 -81 -68 -86 3 -6 -5 -19 -19 -30 -14
-11 -25 -27 -25 -35 0 -25 -155 -165 -187 -169 -22 -2 -28 -8 -28 -28 0 -16
-7 -26 -18 -28 -11 -2 -16 -9 -13 -18 6 -15 -22 -34 -50 -34 -16 0 -16 1 1 20
17 19 17 20 1 20 -18 0 -147 -117 -143 -129 3 -10 -51 -55 -183 -153 -128 -95
-230 -196 -211 -207 20 -13 -17 -36 -174 -109 -94 -44 -152 -66 -157 -59 -7
11 -138 -98 -138 -115 0 -15 -72 -41 -112 -39 -49 1 -112 -22 -175 -66 -50
-34 -59 -36 -113 -22 -10 3 -15 -4 -15 -21 0 -23 4 -25 40 -25 22 0 50 4 63 8
16 6 22 5 22 -6 0 -19 -28 -43 -71 -61 -33 -14 -39 -13 -89 10 -79 37 -157 42
-220 15 -28 -12 -55 -19 -61 -15 -6 3 -18 -1 -27 -8 -9 -8 -24 -18 -32 -22 -8
-4 -6 0 4 8 34 27 6 37 -42 16 -35 -16 -42 -16 -42 -5 0 8 -4 15 -9 15 -5 0
-73 71 -152 157 -78 87 -146 160 -151 161 -10 4 5 -33 96 -247 36 -85 64 -155
63 -156 -1 -1 -103 -28 -227 -60 -124 -32 -229 -61 -234 -66 -9 -8 18 -16 172
-50 56 -12 102 -25 102 -29 0 -4 -11 -12 -25 -18 -46 -21 -28 -32 42 -25 l68
6 -25 -28 -25 -28 29 7 c63 15 86 18 86 11 0 -4 -20 -51 -45 -103 -25 -52 -43
-97 -41 -100 3 -2 60 35 127 83 164 116 156 113 234 86 42 -15 74 -21 91 -17
22 6 25 4 20 -10 -5 -14 -1 -16 26 -10 l33 6 -25 -20 -25 -20 36 0 c20 0 67
-11 103 -25 67 -25 137 -35 106 -15 -8 5 -24 10 -35 10 -32 0 -44 13 -38 43 5
24 10 27 43 27 29 0 47 -9 82 -40 55 -48 85 -60 146 -59 l47 1 -35 10 c-19 5
-39 14 -45 19 -15 15 25 10 85 -11 80 -27 139 -10 92 27 -16 13 -15 14 6 8 18
-5 34 1 62 24 44 35 50 37 50 16 0 -11 11 -15 39 -15 40 0 71 20 71 45 0 8 9
19 19 25 35 18 43 11 22 -19 -27 -38 -26 -43 5 -31 36 14 44 13 44 -10 0 -19
2 -18 46 5 26 14 59 25 73 25 48 0 69 10 64 30 -3 12 5 29 21 44 25 26 56 35
56 16 0 -5 12 -10 26 -10 23 0 25 -2 13 -16 -7 -9 -22 -14 -35 -11 -16 3 -25
-3 -33 -20 -16 -35 -15 -36 33 -31 50 6 136 38 136 52 0 4 -8 5 -17 1 -21 -7
-17 -4 51 51 42 33 48 36 42 16 -10 -29 5 -28 34 3 13 14 27 25 32 25 16 0 8
-47 -12 -65 -40 -36 -9 -27 51 15 59 41 62 42 100 31 48 -15 90 4 119 52 l20
32 1 -30 c1 -26 2 -24 11 13 8 35 13 42 34 42 24 0 24 0 8 -32 -9 -18 -25 -44
-35 -57 -32 -40 -21 -47 16 -11 l35 34 20 -22 c25 -27 25 -32 0 -32 -11 0 -20
-4 -20 -10 0 -5 7 -7 15 -4 19 8 19 -2 -5 -106 -11 -47 -20 -99 -20 -117 0
-25 -6 -35 -27 -45 -25 -12 -29 -20 -33 -70 -5 -57 -30 -107 -30 -60 0 23 -7
26 -34 16 -15 -6 -106 -117 -106 -129 0 -3 28 9 61 26 69 34 91 29 71 -16 -7
-14 -12 -37 -12 -50 0 -18 -5 -25 -19 -25 -13 0 -23 -11 -31 -35 -13 -39 -13
-39 -41 -25 -17 10 -19 7 -19 -19 0 -17 5 -42 12 -55 15 -35 -10 -62 -66 -73
-28 -6 -42 -14 -44 -27 -3 -16 0 -18 27 -13 16 4 33 2 36 -3 3 -5 -8 -33 -24
-63 -17 -29 -38 -87 -47 -127 -18 -81 -30 -103 -40 -77 -12 31 -26 18 -20 -17
5 -23 3 -36 -6 -39 -10 -3 -9 -12 5 -37 31 -58 24 -82 -42 -133 -39 -30 -64
-58 -72 -81 -11 -31 -14 -33 -26 -18 -10 14 -14 15 -22 3 -10 -15 -31 -144
-31 -189 0 -22 -11 -34 -60 -66 -33 -22 -60 -43 -60 -47 0 -5 8 -13 18 -19 12
-8 13 -13 5 -16 -7 -3 -13 -13 -13 -21 0 -12 -7 -14 -31 -9 -24 4 -30 3 -26
-8 3 -8 -16 -32 -47 -59 l-53 -46 -6 -123 c-4 -85 -12 -144 -27 -192 -21 -68
-22 -68 -40 -48 -11 11 -29 23 -40 27 -20 6 -20 7 -1 31 11 14 27 49 36 79 10
30 24 60 31 66 21 17 17 31 -4 20 -13 -7 -22 -7 -30 1 -8 8 -17 -10 -33 -65
-13 -46 -26 -74 -33 -71 -6 2 -26 -6 -44 -19 -28 -21 -30 -26 -17 -37 22 -18
18 -37 -20 -109 -24 -46 -36 -60 -40 -49 -4 9 1 31 10 48 20 40 14 49 -15 20
-17 -17 -21 -32 -20 -68 4 -74 2 -90 -10 -72 -6 9 -10 10 -10 3 0 -21 -62 -85
-70 -73 -4 7 -22 -7 -47 -37 -85 -103 -153 -223 -153 -270 l0 -28 -22 32 c-27
38 -42 43 -35 10 3 -12 15 -87 27 -167 11 -80 28 -180 36 -223 7 -42 14 -86
14 -97 0 -11 4 -20 9 -20 10 0 13 7 76 180 26 69 53 139 60 155 8 17 20 46 28
66 10 25 27 42 56 57 l42 22 14 -35 c18 -43 19 -56 2 -79 -13 -17 -16 -15 -46
23 -18 22 -37 41 -42 41 -5 0 -9 -37 -9 -82 1 -83 1 -83 18 -55 13 21 33 33
84 47 36 11 77 29 89 39 l23 19 -32 27 c-18 15 -32 30 -32 33 0 4 42 6 92 5
51 -2 87 0 80 3 -18 8 -32 48 -25 73 8 31 19 26 42 -21 l20 -42 22 50 c12 27
23 51 25 53 2 2 15 -6 30 -18 36 -28 43 -27 115 16 53 31 60 38 44 44 -11 4
-15 8 -10 8 16 1 41 50 54 107 7 28 21 66 33 84 l20 34 15 -29 c25 -48 44 -65
75 -65 l28 0 0 113 c1 159 26 263 61 254 12 -3 26 4 39 21 l19 27 1 -36 c0
-49 -29 -212 -50 -281 l-18 -58 37 0 c20 0 42 5 49 12 22 22 23 1 1 -26 -12
-15 -20 -29 -18 -30 2 -2 38 17 79 43 59 37 76 52 80 76 4 17 16 49 28 72 23
44 28 73 13 73 -5 0 -33 -34 -63 -75 -29 -41 -56 -75 -60 -75 -13 0 -9 64 8
113 9 25 33 66 55 89 37 41 39 42 54 24 8 -11 18 -34 21 -53 8 -40 19 -42 38
-5 8 15 24 36 36 47 l23 20 -12 -23 c-7 -13 -10 -26 -7 -29 10 -10 37 20 62
68 29 59 53 76 126 91 66 14 73 28 24 46 -35 13 -159 120 -176 152 -14 26 -4
44 31 57 28 11 31 10 56 -28 26 -40 37 -47 48 -29 3 5 -9 23 -27 39 -18 16
-31 32 -28 35 3 3 25 9 48 14 51 12 66 1 83 -61 6 -23 16 -48 21 -54 13 -16
48 -17 68 -2 12 8 9 9 -12 5 -25 -6 -28 -3 -28 19 0 22 2 24 19 13 25 -15 51
4 51 37 0 12 7 28 15 35 21 17 19 34 -3 26 -9 -4 6 14 33 38 47 41 49 45 34
62 -21 24 -30 80 -20 124 6 29 12 35 32 34 18 0 51 28 134 116 107 114 153
149 174 135 7 -4 11 3 11 17 0 14 7 33 15 44 13 17 14 16 8 -19 -4 -29 -2 -37
9 -37 10 0 17 14 21 43 3 23 12 63 21 90 14 44 14 47 -3 47 -27 0 -51 -32 -71
-96 l-17 -58 -18 35 c-42 79 1 309 50 269 25 -21 65 64 65 137 0 64 50 173 79
173 19 0 71 -46 71 -63 0 -5 -25 -35 -57 -68 -31 -32 -52 -59 -47 -59 6 0 15
5 22 12 23 23 24 -1 2 -36 -12 -20 -17 -36 -11 -36 16 0 72 76 149 200 39 63
82 130 96 149 19 25 26 47 26 78 0 48 -14 56 -32 18 -15 -34 -24 -24 -32 34
-5 40 -2 56 14 84 14 23 27 34 36 30 10 -4 12 0 8 10 -4 10 9 31 36 59 48 51
61 86 36 104 -16 11 -16 14 5 33 12 11 30 44 40 73 22 63 21 58 10 58 -5 0
-12 -12 -15 -26 -4 -15 -9 -25 -11 -23 -6 7 33 172 42 178 5 3 26 19 46 35 21
16 40 26 44 23 12 -12 -19 -65 -45 -77 -23 -10 -24 -13 -10 -21 9 -5 19 -29
23 -56 7 -52 20 -73 41 -73 9 0 14 11 14 30 0 22 4 28 15 23 13 -4 15 1 9 35
-5 32 -1 49 17 82 18 32 21 45 12 58 -8 14 -7 23 3 37 8 10 17 16 20 12 11
-10 34 13 34 33 0 10 7 20 15 24 8 3 15 15 15 27 0 12 8 23 20 26 11 3 20 10
20 15 0 5 4 7 9 3 5 -3 17 2 26 11 12 12 13 19 5 24 -9 5 -9 9 -1 14 20 13 13
57 -10 63 -12 4 -18 11 -15 20 3 8 6 18 6 23 0 5 12 10 28 12 27 4 26 5 -13
23 l-40 20 33 3 c33 3 41 15 20 28 -8 5 -6 10 8 15 19 7 19 8 -1 8 -16 1 -13
7 18 36 23 21 31 35 22 35 -8 0 -15 5 -15 10 0 6 7 10 16 10 14 0 44 22 44 33
0 2 -12 3 -28 1 -23 -3 -23 -2 5 6 39 12 46 47 11 52 -25 3 -37 28 -14 28 9 0
13 6 10 14 -3 8 4 16 18 20 21 6 22 7 6 20 -26 19 -22 27 8 20 19 -5 25 -4 20
5 -4 6 -1 11 8 11 19 0 21 11 4 28 -9 9 -8 12 7 13 17 1 16 2 -3 7 -13 4 -23
10 -23 15 1 4 1 14 1 22 0 8 10 16 23 17 12 0 2 4 -23 8 -41 6 -42 7 -11 8 33
2 34 3 15 17 -24 18 -6 19 36 1 21 -9 28 -15 19 -19 -11 -4 -10 -6 2 -6 17 -1
32 22 22 33 -4 3 -15 6 -25 6 -10 0 -18 4 -18 8 0 5 -9 18 -20 30 -19 20 -19
22 -3 23 10 0 3 5 -15 10 -17 5 -32 13 -32 18 0 12 46 41 64 41 8 0 27 5 40
12 26 11 26 11 5 26 -18 12 -22 12 -38 -2 -22 -20 -63 -22 -55 -2 3 8 15 11
30 8 14 -2 24 0 24 7 0 6 -10 12 -22 12 -15 1 -11 4 12 9 l35 7 -36 2 c-27 1
-38 6 -42 21 -3 10 0 21 7 24 6 2 -3 7 -20 11 -24 5 -30 11 -27 25 3 12 11 16
26 13 21 -5 21 -4 -2 15 -17 14 -22 25 -16 40 6 22 25 31 25 12 0 -5 -5 -10
-12 -10 -6 0 -9 -3 -6 -6 9 -8 78 7 78 17 0 5 -12 9 -26 9 -18 0 -25 4 -21 14
3 8 3 17 0 20 -4 3 -8 20 -10 37 -2 18 -11 38 -21 45 -11 9 -13 16 -6 21 6 5
14 17 18 28 6 16 9 17 16 5 9 -13 10 -13 11 0 0 8 4 4 9 -10 l7 -25 8 28 c4
17 3 38 -3 50 -6 12 -13 34 -16 50 -5 22 -3 27 14 27 26 0 26 16 0 23 -29 8
-24 26 6 24 38 -3 41 19 4 26 -17 4 -30 13 -30 21 0 8 -8 20 -17 25 -15 9 -14
10 10 11 15 0 27 5 27 11 0 7 -14 8 -41 4 -29 -5 -40 -4 -35 4 4 6 15 11 24
12 10 0 3 7 -15 15 -18 8 -33 18 -33 22 0 5 -21 9 -47 11 -26 1 -50 4 -52 7
-8 8 20 22 57 29 50 9 83 45 43 45 -11 0 -23 5 -27 11 -4 6 -20 8 -39 5 -24
-5 -34 -2 -39 9 -3 8 -1 15 4 15 6 0 10 13 10 28 0 15 5 33 12 40 9 9 8 12 -5
12 -21 0 -22 16 -2 24 26 10 17 24 -22 34 -30 8 -33 10 -13 11 14 1 32 6 40
11 12 8 11 10 -7 10 -16 0 -21 4 -17 15 4 9 1 15 -7 15 -10 0 -10 3 -2 11 15
15 -11 43 -32 36 -7 -3 -19 0 -25 8 -9 11 -5 17 21 31 l33 16 -27 15 c-15 8
-27 22 -27 33 0 11 -3 21 -7 21 -5 1 -20 3 -36 5 -40 4 -131 74 -98 74 7 0 9
5 5 12 -4 6 1 17 11 24 16 12 17 16 4 31 -14 17 -39 67 -39 79 0 3 4 3 9 0 5
-3 11 3 14 14 6 22 34 18 34 -5 0 -8 -4 -12 -9 -9 -9 6 -11 -8 -2 -30 8 -22
25 -20 17 2 -3 11 4 7 22 -11 15 -16 29 -26 31 -24 7 7 -7 37 -17 37 -5 0 -9
12 -9 28 -1 28 -20 62 -37 62 -5 0 -19 9 -31 20 -12 12 -22 19 -22 16 0 -3
-12 7 -26 21 -24 23 -27 24 -36 10 -17 -32 -35 -17 -71 61 -20 42 -58 118 -85
168 l-49 92 35 -24 c19 -13 39 -24 44 -24 5 0 33 -18 63 -40 30 -22 56 -40 58
-40 3 0 4 15 3 32 -1 21 -7 33 -16 34 -49 3 -88 23 -142 72 -55 51 -58 57 -39
64 40 14 21 65 -39 103 -21 13 -46 40 -55 59 -9 18 -27 44 -41 57 -30 28 -30
35 1 43 14 4 23 10 20 15 -7 12 19 21 58 21 44 0 116 -80 169 -186 23 -46 47
-84 54 -84 19 0 34 33 34 74 0 27 3 34 15 30 8 -4 15 -1 15 5 0 16 -101 89
-182 131 l-71 38 35 11 c40 13 74 46 80 76 2 15 12 21 43 23 27 2 46 10 57 25
l17 22 25 -28 25 -27 15 22 c9 12 16 35 16 51 0 15 4 26 9 23 5 -3 12 6 15 20
7 25 8 26 21 8 8 -11 15 -27 15 -36 0 -28 63 -24 83 5 13 19 18 20 37 9 20
-12 21 -11 18 15 -2 23 -8 28 -30 28 -23 -1 -28 4 -28 22 0 39 28 39 68 0 42
-39 77 -54 96 -38 13 11 75 9 95 -3 7 -5 11 1 11 17 0 19 6 26 28 29 37 5 52
0 52 -19 0 -12 3 -13 13 -5 8 7 29 9 50 5 26 -4 37 -2 37 7 0 7 -7 10 -15 6
-14 -5 -35 27 -35 55 0 19 26 8 52 -21 18 -20 35 -30 55 -30 27 1 28 1 8 17
l-20 16 20 -8 c39 -14 50 -11 51 16 2 46 10 57 38 52 24 -5 26 -3 28 33 1 37
1 38 5 7 3 -20 10 -33 19 -33 8 0 14 -8 14 -17 0 -14 3 -13 16 5 17 24 44 28
73 10 24 -15 73 4 66 24 -3 8 1 22 9 33 15 20 15 20 16 1 0 -20 0 -20 16 0 14
18 15 16 10 -24 l-4 -44 24 23 c22 21 25 21 42 6 26 -24 33 -22 65 18 33 41
50 45 41 10 -4 -15 -2 -25 5 -25 6 0 11 16 11 36 0 36 0 36 36 30 25 -5 43 -3
59 8 21 14 24 14 38 -7 21 -31 33 -13 18 28 -12 34 -9 55 9 55 4 0 13 -14 19
-32 12 -35 16 -34 39 13 10 18 24 35 32 38 13 3 13 2 2 -12 -11 -13 -10 -17 5
-25 15 -9 16 -13 4 -35 -15 -28 -12 -58 7 -65 9 -3 11 3 6 22 -5 22 -1 28 26
43 18 10 40 26 49 36 8 9 21 17 28 17 12 0 18 15 25 65 4 25 34 27 32 3 -2
-22 12 -23 24 -2 5 9 24 16 45 17 34 2 37 5 37 31 0 16 3 26 7 23 3 -4 12 1
19 11 7 9 14 12 14 5 0 -6 -7 -18 -15 -27 -13 -13 -13 -19 -3 -36 16 -26 25
-25 49 3 l19 22 -3 -24 c-2 -27 31 -56 78 -67 l30 -7 -37 41 c-50 55 -49 72 2
72 33 0 40 -3 40 -19 0 -11 4 -22 9 -25 11 -7 21 17 21 51 0 25 1 26 20 8 11
-10 22 -26 25 -36 4 -11 11 -19 16 -19 13 0 11 34 -2 47 -16 16 -2 33 26 33
13 0 32 11 43 25 25 31 32 31 32 3 0 -23 0 -23 20 2 11 14 19 34 18 45 -3 53
0 57 32 40 16 -8 38 -15 50 -15 12 0 20 -7 20 -16 0 -27 23 -9 47 36 30 56 28
55 57 36 37 -24 51 -19 21 7 -21 18 -26 29 -23 57 l4 35 10 -45 c7 -28 15 -44
23 -42 7 1 19 -5 27 -15 7 -10 14 -13 14 -6 0 8 9 9 32 2 17 -5 32 -8 33 -6 1
1 12 34 24 73 11 40 29 82 40 95 l18 23 13 -37 c11 -36 10 -39 -16 -60 -15
-12 -32 -25 -37 -28 -6 -4 -4 -15 6 -28 l15 -22 20 26 c11 14 23 22 26 17 3
-5 15 -12 25 -15 17 -4 19 -1 15 23 -5 21 -1 31 17 44 16 11 25 13 28 5 2 -6
-3 -15 -10 -20 -11 -7 -11 -11 -1 -21 10 -10 15 -10 22 2 5 8 10 25 10 37 0
13 3 22 8 21 4 0 15 2 26 7 11 5 21 3 26 -5 12 -19 73 -4 109 25 37 32 41 31
41 -2 0 -20 3 -24 9 -14 5 8 12 59 17 115 l7 101 23 -70 c13 -38 23 -81 23
-95 0 -20 -4 -17 -21 20 -25 54 -34 36 -23 -49 6 -43 9 -51 15 -35 7 16 15 20
39 16 39 -6 48 15 26 59 l-17 33 42 -34 c34 -27 41 -30 37 -14 -3 10 -8 35
-11 54 -4 26 -1 23 11 -15 l16 -50 10 35 9 35 16 -32 c16 -34 26 -40 37 -23 3
6 15 10 25 10 13 0 19 6 18 18 -2 15 3 47 18 120 6 32 20 20 27 -24 6 -36 22
-64 38 -64 5 0 10 44 10 98 2 125 8 153 37 163 24 9 24 8 17 -43 -3 -29 -13
-91 -21 -136 -16 -87 -10 -112 23 -112 11 0 11 -4 3 -20 -10 -18 -8 -20 30
-20 35 0 40 3 40 23 0 13 12 40 27 60 29 37 47 48 37 22 -4 -10 0 -15 10 -15
9 0 21 11 26 25 12 32 21 31 61 -2 l32 -27 -6 24 c-3 14 -22 70 -41 125 -39
109 -47 167 -21 145 8 -7 18 -30 21 -52 4 -21 11 -41 17 -45 6 -4 7 7 3 31 -4
22 -3 36 3 36 17 0 31 -36 31 -77 0 -57 18 -113 37 -113 13 0 14 2 2 17 -9 10
-9 14 -2 10 7 -5 22 2 34 14 17 17 19 23 8 30 -10 6 -7 9 12 9 25 0 26 2 26
56 0 30 5 60 12 67 8 8 11 8 11 -1 0 -8 23 -12 75 -12 72 0 75 -1 101 -34 l27
-34 24 35 c13 19 25 40 26 46 2 11 49 35 73 36 7 1 15 -11 18 -25 6 -21 10
-24 19 -15 9 9 9 16 0 30 -11 17 -5 21 65 46 42 15 91 33 107 40 17 7 48 19
70 26 22 8 56 21 75 31 19 9 39 13 45 10 24 -15 44 -11 47 11 2 15 9 21 22 20
11 -1 26 6 33 15 9 12 12 13 13 4 0 -17 25 -10 25 7 0 6 49 34 109 62 99 45
110 48 126 34 9 -8 20 -12 23 -8 4 3 7 1 7 -6 0 -7 5 -9 10 -6 18 11 11 35
-12 45 -20 8 -11 15 14 11 5 0 17 8 28 19 11 11 31 20 45 20 14 0 30 8 36 18
8 12 20 17 34 14 16 -3 24 2 28 17 3 12 12 21 20 21 29 0 313 98 418 144 221
97 458 244 742 459 146 111 164 122 155 96 -10 -30 -123 -209 -132 -209 -2 0
-2 9 1 20 10 38 -21 20 -72 -42 -27 -33 -87 -95 -133 -137 -46 -42 -120 -121
-165 -176 -45 -55 -88 -105 -97 -112 -8 -7 -92 -69 -186 -137 -149 -109 -197
-156 -161 -156 6 0 0 -11 -13 -25 -12 -13 -26 -22 -31 -20 -4 3 -24 -15 -45
-40 -20 -25 -48 -48 -63 -51 -52 -12 -61 -16 -61 -27 0 -19 -248 -211 -316
-245 -34 -17 -97 -59 -140 -94 -111 -89 -344 -324 -443 -448 -88 -110 -221
-304 -221 -323 0 -7 -5 -4 -11 6 -6 10 -22 17 -41 17 l-31 0 20 23 c11 12 69
86 127 165 106 141 232 277 301 323 39 27 49 50 10 25 -14 -9 -36 -23 -50 -32
-24 -16 -25 -16 -19 2 18 52 -197 -186 -278 -306 -29 -44 -58 -79 -64 -80 -20
0 -110 -117 -154 -199 -11 -21 -10 -23 4 -18 22 9 21 3 -19 -133 -40 -138 -61
-248 -71 -375 -7 -82 -8 -86 -14 -45 -6 41 -1 124 15 220 l5 35 -16 -35 c-39
-85 -40 -188 -3 -365 20 -98 23 -135 11 -135 -4 0 -6 -45 -4 -99 5 -111 -16
-294 -29 -251 l-7 25 -1 -27 c-4 -98 -82 -402 -146 -569 -44 -114 -257 -549
-269 -549 -4 0 -6 20 -4 45 2 25 0 45 -3 45 -3 0 -25 -41 -48 -91 -51 -109
-61 -87 118 -272 94 -97 141 -155 179 -220 29 -49 52 -95 52 -101 0 -7 -9 -21
-21 -32 -18 -17 -23 -17 -47 -4 -14 9 -46 39 -69 69 -46 55 -48 67 -28 167 4
17 -9 30 -63 66 -37 25 -91 66 -119 92 -29 27 -53 45 -53 41 0 -4 34 -52 75
-105 42 -56 108 -162 153 -247 83 -158 191 -333 206 -333 4 0 5 7 2 16 -13 33
-18 92 -8 98 14 9 27 -12 47 -74 21 -68 145 -361 158 -375 6 -6 7 -2 2 13 -12
39 23 26 81 -32 30 -30 54 -60 54 -66 0 -6 -11 -15 -25 -22 -19 -8 -28 -8 -40
2 -35 29 -10 -9 53 -79 158 -177 163 -184 166 -246 2 -30 7 -59 11 -63 16 -16
431 3 555 25 28 5 31 7 15 13 -15 5 -8 9 27 14 60 9 181 51 322 110 88 38 262
96 286 96 3 0 5 -15 5 -32 l0 -33 75 0 75 1 90 65 c159 115 208 145 290 174
44 16 130 48 190 71 61 24 101 36 90 28 -48 -37 -260 -167 -349 -214 -53 -29
-95 -54 -92 -57 9 -9 146 18 213 42 101 36 87 23 -21 -21 -53 -22 -96 -42 -96
-46 0 -9 283 87 426 144 60 25 121 56 134 69 14 14 81 58 149 99 126 77 201
133 190 144 -3 4 -64 -28 -135 -70 -183 -110 -424 -233 -400 -205 60 67 635
418 644 391 2 -5 -8 -26 -22 -47 -42 -61 -31 -67 37 -20 96 69 183 122 168
104 -27 -34 11 -17 103 44 174 117 338 184 603 249 50 12 100 28 110 36 16 12
15 13 -16 14 -50 0 -108 20 -131 45 l-21 22 127 53 c70 28 143 53 162 55 20 2
41 10 47 19 6 8 56 33 111 55 54 21 117 47 139 55 l40 16 -63 -57 c-34 -32
-62 -64 -62 -70 0 -8 13 -13 33 -13 39 0 138 31 119 38 -7 2 -27 -1 -44 -7
-47 -17 -45 -6 5 24 31 17 53 24 69 20 28 -7 107 22 161 58 20 13 72 39 117
57 47 19 77 36 70 40 -8 5 -8 9 3 13 7 3 65 60 127 127 79 86 109 124 100 130
-30 19 97 204 243 355 133 137 159 175 319 468 88 160 178 328 200 372 48 94
114 194 133 201 8 3 21 28 31 56 12 36 19 47 25 37 8 -11 12 -10 24 5 8 11 15
25 15 32 0 31 85 210 144 303 36 57 66 109 66 115 0 18 -69 -57 -119 -129 -27
-38 -76 -133 -110 -210 -51 -114 -61 -131 -56 -95 12 86 109 243 413 665 163
226 321 444 352 485 42 57 95 161 214 420 88 190 210 451 271 580 62 129 115
244 119 256 4 12 -6 55 -23 105 -15 46 -48 164 -72 262 -24 97 -46 177 -50
177 -11 0 -604 -869 -722 -1058 -26 -42 -53 -79 -58 -81 -6 -2 -19 -22 -29
-45 -18 -41 -388 -635 -377 -606 27 76 158 328 471 910 255 473 390 736 438
850 39 91 157 375 264 632 l194 467 -100 258 c-55 142 -101 264 -103 272 -1 8
54 37 158 80 198 83 404 180 553 259 111 59 141 62 38 4 -69 -39 -83 -57 -65
-79 15 -18 16 -18 -37 4 -14 5 -16 1 -12 -20 4 -18 1 -27 -8 -27 -8 0 -11 -6
-8 -15 4 -8 2 -15 -4 -15 -6 0 -60 -33 -121 -74 -96 -65 -199 -116 -232 -116
-6 0 -23 -9 -39 -20 -15 -10 -46 -22 -68 -26 -23 -4 -46 -12 -52 -20 -23 -26
93 -33 327 -19 107 7 136 12 152 26 27 25 109 45 124 30 17 -17 30 -13 24 8
-3 14 -1 18 9 14 8 -3 14 0 14 7 0 10 4 10 15 0 13 -11 13 -15 3 -21 -8 -6 -2
-9 17 -9 32 0 79 26 71 39 -3 4 26 23 64 41 86 42 125 80 125 123 0 28 5 34
35 43 34 11 43 21 54 57 5 15 9 16 28 6 13 -7 26 -17 30 -23 4 -6 11 -1 17 14
7 19 10 -4 11 -90 0 -104 12 -221 26 -275 5 -20 5 -20 -10 -1 -22 27 -27 18
-16 -29 14 -60 12 -218 -4 -325 -8 -52 -35 -181 -60 -285 -58 -245 -68 -304
-68 -396 -1 -101 22 -166 74 -219 l41 -41 17 -162 c9 -89 19 -155 22 -147 4 8
14 39 24 68 10 29 27 60 37 70 22 19 14 26 78 -67 25 -35 35 -42 55 -38 13 2
24 3 24 1 0 -14 -48 -126 -66 -156 -25 -39 -63 -78 -76 -78 -18 0 -20 51 -3
76 19 30 9 44 -31 44 -42 0 -78 -59 -133 -221 -57 -169 -82 -216 -114 -225
-18 -4 -29 -29 -65 -142 -168 -531 -467 -1071 -949 -1711 l-95 -126 29 -6 c15
-4 49 -7 76 -8 30 -1 47 -5 47 -13 0 -19 -139 -182 -162 -190 -11 -5 -29 -3
-40 3 -24 13 -19 44 18 98 27 40 17 52 -22 26 -42 -27 -77 -118 -82 -211 l-4
-81 -41 -27 c-80 -51 -95 -26 -57 96 23 75 24 78 8 78 -12 -1 -98 -110 -98
-125 0 -4 6 -5 13 -2 11 4 11 -7 0 -66 -18 -94 -45 -148 -107 -212 -55 -56
-100 -74 -135 -55 -32 17 -63 3 -118 -53 -29 -29 -95 -88 -147 -132 -52 -44
-95 -83 -95 -87 -1 -5 35 -8 79 -8 94 0 94 0 10 -96 -52 -60 -60 -81 -35 -90
10 -4 -10 -18 -55 -40 -133 -63 -275 -172 -583 -447 -236 -211 -308 -271 -366
-308 -27 -18 -61 -54 -89 -96 -61 -92 -194 -221 -326 -318 l-109 -80 38 -6
c68 -11 74 -60 15 -119 l-40 -40 -40 41 c-38 41 -41 42 -89 36 -32 -4 -94 -29
-179 -71 -167 -84 -243 -109 -304 -103 -27 2 -48 0 -48 -4 0 -5 7 -9 15 -9 8
0 15 -6 15 -13 0 -15 -83 -96 -155 -152 -96 -74 -145 -127 -145 -158 0 -20 6
-30 20 -34 24 -6 16 -23 -10 -23 -11 0 -27 12 -37 28 -44 72 -90 72 -176 -1
-131 -110 -258 -184 -682 -393 -268 -132 -479 -247 -515 -280 -13 -13 -11 -17
13 -40 31 -29 32 -32 12 -61 -13 -19 -28 -21 -167 -28 -84 -4 -159 -12 -166
-18 -8 -6 -26 -36 -42 -66 -37 -74 -59 -92 -128 -107 -57 -11 -57 -12 -28 -23
25 -10 27 -14 15 -25 -8 -7 -65 -32 -128 -56 -132 -49 -300 -119 -772 -323
-845 -364 -1386 -531 -2274 -698 -227 -43 -560 -64 -640 -41 -37 11 -44 36
-13 55 116 73 140 89 135 93 -2 2 -43 -18 -91 -46 -94 -56 -106 -77 -59 -107
23 -15 55 -19 203 -22 261 -5 635 28 995 88 66 11 145 23 175 26 30 3 161 24
290 45 129 22 413 67 630 100 551 84 527 80 505 96 -10 8 -16 16 -13 19 2 3
52 8 109 13 90 6 105 10 113 27 7 17 56 31 290 88 379 92 438 101 499 78 50
-19 136 27 94 51 -25 14 -20 25 16 37 22 8 43 8 67 1 19 -6 35 -10 36 -10 1 0
7 14 14 31 16 38 45 50 124 50 54 1 116 -13 116 -25 0 -7 -111 -56 -126 -56
-8 0 -14 -5 -14 -10 0 -10 12 -10 105 7 72 12 180 50 310 108 77 34 149 65
159 69 39 13 9 14 -54 1 -36 -7 -66 -13 -67 -12 -1 1 98 45 220 96 618 262
863 388 1090 560 100 76 237 198 237 211 0 5 -9 12 -21 15 -20 7 -20 9 12 42
65 67 155 127 294 193 77 37 176 93 220 125 44 31 85 59 91 62 6 2 29 29 49
59 37 54 169 184 186 184 5 0 9 -5 9 -11 0 -8 25 -9 86 -4 71 6 86 5 81 -6
-22 -55 -22 -55 -3 -40 33 27 166 191 185 229 10 21 22 58 26 82 4 25 19 79
34 120 l26 74 52 -3 51 -2 17 58 c19 67 41 108 92 170 33 40 38 43 44 25 6
-15 21 -22 59 -27 58 -8 69 -22 52 -68 -6 -17 -10 -32 -8 -34 7 -7 84 31 150
74 96 62 173 138 276 274 133 174 193 219 294 219 36 0 36 0 36 44 0 103 -80
84 -244 -58 -60 -52 -75 -62 -94 -55 -13 5 -22 17 -22 30 0 66 151 258 233
298 26 12 90 27 158 36 170 22 257 52 364 125 22 15 45 25 52 23 18 -7 89 63
153 151 64 89 97 123 149 155 28 16 37 30 48 72 8 31 30 74 53 104 27 35 40
62 40 83 0 31 -18 82 -29 82 -3 -1 -37 -46 -76 -101 -38 -56 -75 -105 -81
-110 -14 -11 73 226 106 292 37 71 94 150 149 204 l51 49 0 -30 c0 -40 -27
-131 -51 -170 -21 -34 -25 -64 -9 -64 6 0 10 7 10 15 0 9 18 35 41 58 22 23
58 71 79 107 60 103 100 126 100 59 0 -45 -49 -131 -159 -278 -122 -164 -194
-301 -159 -301 23 0 83 70 128 150 45 79 68 110 81 110 5 0 15 -12 23 -27 15
-27 15 -26 16 37 0 81 26 129 135 250 82 92 140 193 151 266 l6 45 29 -27 c16
-15 31 -25 35 -22 3 3 12 34 20 68 8 34 20 73 28 88 l14 27 6 -25 c3 -14 9
-52 13 -85 l8 -60 18 54 c27 80 72 144 186 264 75 78 111 125 133 172 39 85
30 108 -11 27 -33 -66 -95 -142 -115 -142 -7 0 -23 12 -37 26 -19 20 -32 25
-61 22 l-36 -3 24 65 c51 133 114 207 226 259 154 73 240 168 303 334 32 87
32 107 -2 39 -47 -93 -133 -167 -133 -114 0 26 101 172 171 247 57 60 64 72
80 143 27 111 14 128 -56 72 -42 -33 -60 -37 -69 -15 -3 9 4 21 20 31 54 36
66 98 40 209 -8 33 -16 80 -18 105 -3 42 -2 45 22 44 14 0 34 -3 46 -7 18 -7
24 0 44 50 13 34 25 89 27 134 l5 77 -42 46 c-41 44 -42 48 -38 98 3 29 13 71
22 93 l17 40 31 -70 c16 -38 35 -81 40 -95 l11 -25 7 25 c5 14 9 45 9 70 1 25
4 62 7 83 l7 37 31 -23 c61 -46 59 -48 54 44 -7 112 5 212 41 339 16 58 33
113 37 123 6 15 3 17 -20 11 -58 -14 -110 60 -122 173 -8 77 12 123 55 123 24
0 30 5 35 31 3 17 6 52 6 78 l0 46 27 -40 c39 -58 43 -128 9 -178 l-26 -37 36
-48 c20 -26 40 -49 45 -50 14 -5 46 75 58 143 13 75 23 357 12 351 -5 -3 -11
-24 -15 -47 -4 -23 -9 -39 -12 -37 -10 11 -95 390 -90 404 9 25 31 15 54 -23
19 -33 22 -35 22 -15 0 13 -9 58 -19 100 -10 43 -22 94 -26 115 l-6 38 38 -16
c81 -34 116 -74 128 -147 4 -21 11 -40 16 -43 5 -3 6 7 4 22 -47 253 -70 395
-64 399 4 2 24 38 44 80 25 52 41 74 50 70 24 -9 29 60 12 163 -9 53 -44 184
-77 291 -63 204 -93 339 -88 391 l3 32 53 -48 c29 -26 55 -45 58 -42 8 8 -17
96 -32 108 -9 8 -22 8 -42 1 -22 -8 -33 -6 -50 7 -25 19 -61 96 -62 129 0 30
18 19 35 -22 l13 -31 7 38 c8 39 11 42 35 27 19 -12 40 6 40 36 0 12 5 35 11
51 11 28 11 28 22 6 5 -13 14 -23 19 -23 11 0 10 27 -2 35 -5 3 -10 15 -10 26
0 16 4 19 23 13 12 -3 19 -3 15 1 -12 13 28 46 47 39 12 -5 16 -4 12 3 -5 7 0
9 13 6 15 -4 20 0 20 14 0 29 11 35 31 17 16 -14 18 -14 28 5 16 28 14 33 -8
21 -26 -13 -36 3 -16 24 12 12 13 20 6 34 -10 19 -6 32 11 32 4 0 8 -13 8 -29
0 -17 6 -31 16 -35 29 -11 34 -6 18 19 -23 35 -11 59 25 52 23 -5 30 -2 34 13
3 11 -1 24 -9 31 -19 15 -19 60 0 53 8 -3 16 4 19 18 l6 22 26 -24 c36 -34 43
-17 10 26 -16 21 -23 34 -16 29 10 -6 12 0 6 25 -7 30 -6 31 14 20 20 -10 22
-9 19 17 -3 27 -2 28 46 28 30 -1 51 -6 54 -13 2 -7 8 -10 12 -7 5 3 16 -5 24
-17 l16 -22 0 26 c0 14 -7 43 -16 64 -11 27 -12 35 -3 27 18 -17 29 -16 29 3
0 22 28 47 45 40 8 -3 15 -1 15 4 0 6 4 10 9 10 5 0 18 -26 28 -57 19 -56 43
-82 43 -46 1 20 24 55 32 47 3 -3 9 7 12 21 4 15 11 23 17 19 6 -4 15 0 20 7
7 12 9 11 9 -1 0 -9 9 -16 20 -17 11 -1 20 2 20 7 0 5 7 7 15 4 9 -4 15 -1 15
7 0 7 8 4 21 -9 11 -12 24 -20 29 -17 5 3 12 -4 15 -15 8 -25 29 -21 33 6 7
46 13 64 22 64 6 0 10 -7 10 -15 0 -8 3 -15 8 -15 4 0 25 -18 47 -40 45 -43
55 -48 55 -23 0 15 2 14 15 -3 13 -18 14 -18 21 12 6 31 7 31 32 18 17 -9 30
-10 36 -4 21 21 28 9 22 -32 -6 -40 -6 -42 8 -23 9 12 15 15 16 7 0 -7 4 -11
9 -8 5 3 14 -1 20 -8 10 -12 3 -16 -41 -24 l-53 -10 63 -1 c40 -1 61 3 57 9
-3 6 -1 10 5 10 7 0 19 8 28 19 27 30 108 16 158 -27 22 -19 65 -55 96 -80 56
-46 64 -71 11 -37 -23 15 -27 15 -34 3 -6 -11 -22 -14 -59 -12 -27 2 -50 1
-49 -3 0 -5 14 -19 31 -33 l31 -24 -6 23 c-6 23 -5 23 77 19 81 -4 85 -6 156
-56 41 -29 66 -52 57 -52 -10 0 -14 -5 -11 -15 4 -10 14 -13 29 -9 28 7 65
-11 65 -31 0 -8 12 -17 28 -20 46 -10 113 -48 135 -77 19 -26 56 -41 42 -17
-9 14 117 -50 130 -67 5 -7 21 -14 35 -16 17 -2 25 -9 24 -20 -1 -14 4 -16 22
-12 27 7 126 -25 118 -38 -3 -4 5 -8 18 -8 40 -1 223 -67 223 -81 0 -7 15 -16
33 -20 17 -3 32 -3 32 2 0 5 -5 9 -12 9 -6 0 -9 2 -7 5 12 11 75 -17 107 -47
22 -21 36 -29 39 -21 4 10 11 9 34 -3 16 -8 34 -12 38 -9 5 3 11 1 13 -3 3 -9
68 -25 68 -17 0 3 -15 11 -32 18 -18 8 -42 24 -52 36 -19 20 -17 20 40 -5 67
-29 80 -39 65 -48 -28 -18 -9 -29 39 -23 28 3 50 2 50 -2 0 -5 23 -14 50 -21
28 -7 52 -16 55 -20 3 -5 56 -25 118 -45 120 -39 184 -42 232 -11 18 12 31 13
59 5 20 -6 105 -9 189 -7 147 3 159 1 352 -39 226 -48 315 -54 380 -24 50 23
99 74 120 124 8 20 22 37 30 37 9 0 18 6 20 13 3 6 26 13 53 15 26 1 90 17
142 34 232 76 300 144 300 296 0 56 4 72 20 87 29 27 25 42 -16 48 -21 4 -52
21 -76 42 -22 21 -56 44 -76 52 -53 22 -152 19 -217 -7 l-54 -22 -121 25 c-67
14 -140 35 -163 45 -23 11 -57 23 -76 26 -50 9 -144 70 -185 121 -41 50 -58
55 -79 24 -9 -13 -17 -16 -22 -10 -11 19 -53 13 -60 -10 -4 -13 -12 -18 -22
-15 -8 3 -25 6 -38 6 -14 0 -25 7 -28 19 -3 12 -23 25 -55 35 -28 10 -62 29
-74 44 -18 22 -41 31 -110 45 -49 10 -92 16 -96 13 -5 -3 -24 6 -42 19 -19 14
-40 25 -47 25 -8 0 -11 9 -7 28 l6 27 -53 -4 c-36 -2 -54 1 -60 10 -16 26 -9
47 19 57 l27 9 -35 8 c-72 15 -166 51 -163 62 2 6 -17 19 -43 29 -36 14 -50
26 -61 51 -7 19 -76 99 -152 178 -81 84 -148 163 -160 189 -15 30 -27 43 -37
39 -9 -3 -14 2 -14 16 0 12 6 21 16 21 14 0 14 2 0 22 -9 12 -16 26 -16 30 0
12 34 10 47 -3 8 -8 13 -8 17 0 4 6 -14 25 -40 43 -84 59 -82 57 -56 58 13 0
22 6 22 16 0 11 5 14 16 10 9 -3 17 -6 20 -6 2 0 1 -7 -3 -16 -4 -12 0 -14 18
-10 13 3 41 8 62 11 21 3 46 14 57 25 18 18 85 42 204 75 41 11 55 19 46 25
-11 7 -11 11 -1 23 8 10 41 17 99 22 48 3 105 13 127 21 23 7 60 14 84 14 37
0 42 2 36 18 -4 9 -8 26 -9 37 -1 18 4 20 69 17 86 -3 129 4 150 24 14 14 22
13 81 -15 37 -17 73 -31 81 -31 13 0 13 -3 2 -16 -11 -14 -8 -15 27 -12 38 3
39 4 39 42 0 45 21 60 31 22 12 -50 62 -41 150 28 47 36 73 48 131 60 93 20
141 40 178 75 30 29 70 47 93 42 7 -1 15 5 18 14 4 9 39 38 78 64 39 27 78 56
85 65 10 12 18 13 33 5 27 -15 74 -4 120 26 21 14 38 21 38 15 0 -5 -9 -14
-21 -20 -11 -7 -19 -13 -17 -16 3 -2 36 10 75 27 69 31 70 31 106 14 47 -22
72 -16 162 40 72 45 124 69 132 61 3 -2 0 -14 -7 -25 -8 -17 -8 -21 3 -21 20
0 38 25 32 42 -9 23 25 44 105 63 41 10 78 21 83 24 8 8 -36 115 -128 311 -33
69 -60 126 -61 128 -4 6 -69 -30 -91 -51 -19 -17 -27 -19 -48 -9 -59 27 -96 3
-51 -33 26 -21 26 -23 11 -39 -9 -9 -30 -23 -46 -32 -28 -14 -30 -14 -41 11
-15 33 -33 32 -60 -6 -26 -36 -54 -49 -118 -56 l-45 -5 39 41 c25 25 37 45 33
55 -9 22 -37 20 -37 -2 0 -23 -32 -53 -90 -83 -37 -20 -65 -25 -164 -29 l-118
-5 -32 -36 c-18 -21 -52 -44 -81 -55 -50 -18 -50 -19 -22 -28 32 -12 33 -23 7
-54 -16 -20 -24 -22 -47 -15 -15 5 -29 15 -31 23 -3 9 1 11 12 7 11 -5 16 -1
16 13 0 25 -23 36 -93 45 -32 4 -64 13 -71 20 -7 7 -41 16 -77 20 -161 17
-349 71 -577 164 l-122 49 0 -29 c0 -32 -7 -35 -45 -17 -34 15 -34 42 0 36 33
-7 32 9 -1 24 -18 9 -36 9 -64 1 -27 -7 -42 -7 -50 1 -18 18 -11 26 24 26 19
0 37 4 40 9 9 14 -55 34 -68 21 -15 -15 -79 -12 -104 6 -12 8 -22 25 -22 37 0
16 -17 32 -65 60 -35 20 -66 37 -69 37 -3 0 -3 -14 1 -32 6 -28 4 -31 -13 -23
-10 4 -27 8 -37 9 -10 0 -37 18 -60 39 -23 21 -93 70 -157 109 -63 39 -128 80
-145 92 -16 13 -51 28 -77 35 -25 7 -75 30 -110 51 -53 33 -64 36 -67 22 -4
-21 -20 -32 -37 -25 -8 3 -11 16 -7 40 6 33 2 39 -61 98 -36 35 -66 72 -66 82
0 13 -3 14 -8 5 -6 -9 -22 -6 -70 13 -34 14 -68 25 -77 25 -9 0 -15 9 -15 21
0 14 -10 24 -32 32 -18 7 -96 43 -173 81 -124 60 -293 126 -324 126 -6 0 -11
-8 -11 -18 0 -35 -13 -32 -60 12 -35 33 -53 43 -69 39 -12 -3 -24 -9 -27 -14
-8 -13 -48 -11 -63 4 -11 10 -13 9 -8 -5 4 -10 5 -18 4 -18 -1 0 -27 7 -57 16
-40 12 -109 17 -250 19 -107 2 -208 1 -225 -2z m-386 -217 c-2 -2 -26 -10 -53
-19 -53 -18 -55 -10 -3 10 31 11 65 17 56 9z m-1455 -52 c3 -8 2 -12 -4 -9 -6
3 -10 10 -10 16 0 14 7 11 14 -7z m425 -44 c17 -28 29 -50 28 -50 -2 0 -26 12
-54 28 -49 27 -55 39 -31 69 14 17 21 11 57 -47z m756 -28 c-6 -4 -32 -25 -60
-47 -40 -31 -45 -33 -25 -11 14 16 39 37 55 47 31 20 46 25 30 11z m-1680 -29
l18 -28 -21 19 c-12 11 -22 23 -22 28 0 14 7 9 25 -19z m-112 -213 c3 -11 1
-18 -4 -14 -5 3 -9 12 -9 20 0 20 7 17 13 -6z m-2007 -2 c10 -16 -42 -58 -73
-58 -15 0 -51 8 -81 17 l-55 18 54 17 c63 20 145 23 155 6z m1827 -78 c3 -11
3 -20 1 -20 -2 0 -8 9 -14 20 -6 11 -7 20 -2 20 6 0 12 -9 15 -20z m-10384
-589 c109 2 141 -9 163 -56 10 -22 11 -23 47 -8 24 10 92 18 206 23 171 8 241
19 282 45 19 13 30 11 95 -12 47 -17 102 -28 155 -31 l82 -4 7 -59 c4 -38 11
-59 19 -59 7 0 66 20 132 45 65 25 125 45 134 45 15 0 119 -101 119 -115 0
-22 -28 -50 -67 -67 -24 -11 -43 -21 -41 -23 2 -2 35 0 73 6 39 6 153 12 255
13 102 2 205 7 229 11 41 8 44 7 37 -11 -20 -48 -19 -49 124 -54 74 -3 142
-10 151 -15 9 -6 29 -25 44 -43 37 -45 108 -91 315 -207 449 -252 624 -417
834 -790 31 -55 56 -105 56 -111 0 -6 -13 -14 -29 -17 -15 -3 -42 -18 -60 -32
-22 -20 -29 -22 -24 -9 6 16 -1 17 -84 12 -79 -5 -99 -10 -156 -40 -57 -30
-67 -33 -72 -19 -4 14 -26 16 -167 15 -90 -1 -181 -5 -203 -10 -22 -4 -127 -9
-234 -10 -174 -1 -196 -4 -220 -21 -14 -11 -30 -28 -35 -39 -5 -10 -33 -30
-62 -43 -60 -26 -69 -41 -24 -41 33 0 38 -11 15 -30 -8 -7 -15 -19 -15 -26 0
-14 -36 -19 -64 -8 -20 8 -21 24 -1 24 26 0 16 30 -12 41 -16 6 -49 8 -74 5
-25 -4 -60 -1 -77 5 -23 8 -64 8 -150 0 -64 -6 -209 -16 -322 -21 -209 -11
-400 -27 -408 -34 -2 -2 4 -16 14 -31 l17 -26 -49 3 c-50 3 -67 20 -26 26 32
5 27 22 -6 22 -16 0 -43 -13 -65 -31 -24 -19 -44 -29 -54 -25 -14 6 -10 12 18
37 l34 30 -34 -5 c-19 -4 -41 -15 -48 -26 -31 -45 -109 -64 -134 -34 -11 13
-26 15 -93 9 -45 -4 -83 -9 -86 -12 -3 -2 6 -13 20 -23 l25 -19 -32 -12 c-18
-6 -33 -14 -33 -17 0 -4 -30 -5 -67 -3 -95 5 -394 -36 -468 -65 -33 -12 -82
-25 -110 -29 -75 -10 -80 -12 -64 -31 11 -14 10 -18 -6 -30 -16 -12 -20 -11
-36 15 -16 26 -22 28 -97 33 -44 3 -90 11 -102 18 -19 10 -24 10 -32 -4 -5 -9
-15 -16 -22 -16 -7 0 -38 -8 -69 -18 -46 -16 -58 -17 -69 -6 -11 11 -25 10
-79 -5 -36 -10 -121 -26 -190 -35 -141 -19 -220 -33 -266 -47 -28 -9 -31 -13
-23 -29 15 -27 -2 -32 -50 -15 -59 21 -77 19 -96 -10 -11 -17 -25 -25 -45 -25
-18 0 -28 -5 -27 -12 2 -8 -10 -14 -27 -16 -72 -8 -228 -46 -470 -115 -360
-104 -353 -102 -454 -83 -89 17 -229 20 -297 7 l-42 -8 14 33 c8 18 14 49 14
69 0 22 5 35 13 35 28 0 99 65 144 133 26 39 84 155 129 257 94 214 135 298
175 357 16 23 29 46 29 51 0 5 -16 22 -35 36 l-34 26 43 68 c77 119 228 401
221 412 -3 5 -19 17 -36 25 -16 9 -29 19 -29 24 0 19 82 116 132 158 29 24
111 80 182 125 105 66 143 83 200 95 122 25 206 76 391 237 161 139 282 199
395 195 31 -1 66 4 79 11 43 23 84 30 116 21 16 -5 56 -17 88 -26 34 -10 98
-42 149 -76 50 -32 94 -59 99 -59 19 0 22 35 7 78 l-16 44 24 -5 c13 -2 32 1
41 8 15 11 15 17 4 51 -7 22 -15 44 -17 51 -3 7 15 22 42 36 l48 25 27 -29
c27 -29 29 -29 128 -28z m-333 -57 c13 -30 13 -38 2 -45 -24 -16 -112 -9 -158
12 l-45 21 85 23 c47 12 89 23 93 24 4 0 15 -15 23 -35z m7717 -25 c34 -11
116 -53 182 -92 66 -38 146 -82 179 -97 l58 -27 -43 -17 c-32 -13 -40 -20 -29
-26 27 -14 125 -21 153 -11 24 9 26 15 29 78 3 64 5 68 37 90 53 36 65 28 71
-46 6 -76 24 -95 99 -104 55 -6 79 -1 266 58 107 34 132 38 230 39 98 1 116
-2 160 -23 28 -14 54 -27 59 -29 5 -3 0 12 -12 32 -28 47 -28 72 -1 87 55 29
137 1 294 -100 49 -32 111 -69 137 -82 26 -13 48 -27 48 -30 0 -3 -23 -16 -51
-29 -42 -20 -50 -28 -46 -46 7 -39 -59 -54 -258 -57 -98 -2 -102 -3 -196 -50
-138 -69 -251 -85 -337 -47 -67 30 -102 25 -69 -9 10 -11 10 -14 0 -18 -7 -3
-13 -13 -13 -23 0 -14 -15 -21 -77 -35 -138 -30 -431 -104 -728 -185 -293 -80
-477 -115 -649 -127 -76 -5 -93 -9 -89 -20 5 -12 -3 -13 -41 -8 -30 5 -51 3
-60 -4 -16 -14 -32 2 -20 20 4 8 -5 9 -32 6 -22 -3 -66 -9 -99 -12 -33 -4 -70
-13 -81 -20 -20 -13 -21 -12 -17 5 5 21 -11 28 -22 10 -3 -5 -12 -10 -18 -10
-7 0 -3 7 7 15 30 23 13 28 -32 10 -50 -20 -72 -52 -72 -103 l0 -39 -44 1
c-30 1 -50 -5 -64 -17 -12 -11 -26 -16 -33 -12 -8 6 -4 12 12 21 23 13 22 13
-21 14 -72 0 -173 -19 -200 -39 -26 -18 -100 -35 -207 -46 -35 -4 -63 -11 -63
-16 0 -5 5 -9 11 -9 8 0 7 -5 -1 -15 -11 -13 -37 -16 -134 -15 -190 0 -236 -2
-231 -10 3 -4 -62 -11 -144 -15 l-149 -7 -36 27 c-20 15 -36 32 -36 37 0 5 65
76 144 157 103 105 146 157 151 179 4 21 17 37 35 47 16 8 54 37 84 64 37 32
93 65 164 96 59 27 150 69 202 94 87 42 92 46 63 49 -37 4 -39 11 -18 52 20
39 59 58 153 76 42 8 91 19 107 24 17 6 71 12 120 14 115 6 173 19 260 58 64
29 81 32 193 36 67 3 122 6 122 9 0 2 -9 22 -21 44 -29 58 -23 90 24 113 38
18 45 18 227 2 103 -10 210 -15 236 -11 61 8 144 34 144 45 0 4 -21 13 -47 19
-35 9 -43 15 -33 22 22 13 44 11 113 -12z m-8953 -409 c-35 -24 -54 -31 -30
-11 14 11 30 21 35 21 6 0 3 -5 -5 -10z m10932 -26 c50 -9 38 -24 -18 -24 -32
0 -44 4 -44 15 0 17 8 18 62 9z m-922 -124 c0 -12 -48 -25 -58 -16 -8 9 18 26
41 26 9 0 17 -4 17 -10z m6536 -175 c7 -17 -40 -95 -56 -95 -6 0 -10 9 -10 20
0 26 -21 70 -34 71 -15 2 44 16 72 18 12 0 25 -6 28 -14z m-179 -21 c-3 -3
-12 -4 -19 -1 -8 3 -5 6 6 6 11 1 17 -2 13 -5z m97 -80 c22 -8 20 -34 -1 -34
-19 1 -53 22 -53 34 0 8 33 8 54 0z m94 -20 l23 -7 -27 -18 c-29 -19 -54 -11
-54 17 0 15 21 18 58 8z m-10304 -316 c-13 -39 -22 -49 -55 -62 -56 -23 -69
-21 -69 12 0 59 8 68 73 83 34 8 63 14 64 13 2 0 -4 -21 -13 -46z m-154 -33
c0 -25 -5 -45 -11 -45 -5 0 -8 -4 -5 -9 5 -7 -35 -25 -40 -18 -1 1 -4 25 -7
54 -5 48 -4 52 16 56 46 9 47 8 47 -38z m-140 -16 c-12 -40 -20 -49 -20 -21 0
26 10 52 20 52 5 0 5 -14 0 -31z m472 -11 c-9 -9 -12 -7 -12 12 0 19 3 21 12
12 9 -9 9 -15 0 -24z m8418 -286 c0 -15 -11 -21 -27 -15 -12 5 -12 7 -1 14 17
11 28 11 28 1z m2350 -314 c-12 -23 -29 -51 -38 -60 -14 -16 -16 -17 -43 -1
-22 13 -27 22 -23 40 7 25 -5 29 -37 13 -16 -9 -19 -7 -19 8 0 15 14 21 88 33
48 8 88 14 90 13 2 -1 -6 -22 -18 -46z m-13330 -28 c0 -5 9 -10 20 -10 11 0
20 -4 20 -9 0 -13 -37 -24 -51 -16 -5 4 -19 -1 -29 -10 -19 -18 -50 -15 -50 5
0 19 40 50 65 50 14 0 25 -4 25 -10z m220 0 c0 -15 -41 -37 -80 -44 -32 -6
-31 -4 20 23 64 35 60 34 60 21z m55 -10 c-27 -12 -43 -12 -25 0 8 5 22 9 30
9 10 0 8 -3 -5 -9z m-587 -29 c-25 -32 -48 -40 -48 -17 0 17 37 46 58 46 9 0
6 -9 -10 -29z m14498 -155 c17 -10 21 -15 9 -12 -11 3 -41 10 -67 17 -33 8
-45 15 -41 25 5 15 36 5 99 -30z m-679 28 c-3 -3 -12 -4 -19 -1 -8 3 -5 6 6 6
11 1 17 -2 13 -5z m-20096 -1104 c-5 -3 -14 -16 -20 -29 -8 -15 -16 -20 -22
-14 -7 7 -4 23 8 45 16 30 20 33 30 19 6 -9 8 -18 4 -21z m25 -59 c-15 -14
-16 -12 -16 17 0 18 6 41 13 52 11 19 12 18 15 -16 2 -24 -2 -43 -12 -53z
m15370 51 c-24 -26 -25 -30 -11 -42 8 -7 15 -16 15 -21 0 -5 -9 0 -21 12 -15
15 -28 19 -47 15 -19 -5 -10 4 28 29 67 42 71 43 36 7z m-152 -87 c-4 -8 -11
-12 -16 -9 -6 4 -5 10 3 15 19 12 19 11 13 -6z m-2974 -29 c0 -3 -4 -8 -10
-11 -5 -3 -10 -1 -10 4 0 6 5 11 10 11 6 0 10 -2 10 -4z m3319 -49 c0 -21 -1
-21 -9 -2 -12 28 -12 37 0 30 6 -3 10 -16 9 -28z m-1276 -374 c-22 -27 -106
-129 -188 -228 -188 -229 -180 -221 -155 -155 11 30 44 118 73 194 l52 139
125 48 c69 26 127 47 128 48 2 1 -14 -20 -35 -46z m-14463 -33 c0 -5 -5 -10
-11 -10 -5 0 -7 5 -4 10 3 6 8 10 11 10 2 0 4 -4 4 -10z m13341 -317 c-12 -20
-14 -14 -5 12 4 9 9 14 11 11 3 -2 0 -13 -6 -23z m-30 -70 c-12 -20 -14 -14
-5 12 4 9 9 14 11 11 3 -2 0 -13 -6 -23z m-1582 -350 c-5 -16 -52 -107 -105
-203 -133 -245 -198 -381 -264 -555 -43 -113 -71 -170 -113 -230 -66 -93 -73
-121 -27 -111 17 3 30 1 30 -4 0 -12 -109 -146 -158 -193 -34 -33 -43 -37 -60
-28 -29 15 -30 15 -37 -18 -3 -16 -21 -53 -40 -82 -46 -74 -58 -44 -16 40 17
33 31 67 31 76 0 8 4 15 9 15 4 0 30 20 57 45 38 36 45 48 35 58 -9 9 -22 1
-61 -41 -27 -29 -54 -69 -61 -90 -7 -20 -22 -51 -33 -69 -27 -39 -187 -206
-179 -187 11 29 -14 12 -77 -51 -35 -35 -66 -63 -68 -60 -6 6 55 104 89 142
33 38 49 28 18 -11 -12 -15 -19 -29 -17 -32 7 -6 128 132 128 146 0 7 -18 -7
-39 -31 -21 -24 -41 -42 -44 -39 -9 9 24 100 36 100 7 0 34 41 60 90 26 50 52
90 57 90 5 0 7 7 3 16 -7 20 18 129 27 114 10 -16 37 52 61 155 20 83 39 129
39 95 0 -34 -52 -206 -71 -237 -25 -40 -19 -52 13 -31 39 26 75 107 112 249
18 74 46 163 60 199 24 60 26 59 10 -10 -5 -25 -5 -24 21 5 30 34 99 175 141
286 25 66 33 78 60 88 37 13 139 99 279 234 55 53 101 96 102 97 1 0 -2 -12
-8 -27z m1391 -53 c-6 -11 -13 -20 -16 -20 -2 0 0 9 6 20 6 11 13 20 16 20 2
0 0 -9 -6 -20z m-50 -90 c-17 -33 -33 -60 -35 -60 -3 0 8 27 25 60 17 33 33
60 35 60 3 0 -8 -27 -25 -60z m-3042 -168 c-6 -23 -15 -42 -20 -42 -6 0 -7 8
-3 18 4 9 12 30 17 45 15 41 19 28 6 -21z m1252 -20 c0 -12 -56 -98 -69 -106
-15 -9 -14 1 4 62 14 44 19 52 40 52 14 0 25 -4 25 -8z m-116 -189 c-10 -33
-19 -51 -21 -40 -5 18 27 111 34 103 3 -3 -3 -31 -13 -63z m-1848 -8 c-17 -13
-34 -21 -39 -18 -6 3 5 14 24 24 46 24 50 23 15 -6z m-9791 5 c3 -5 1 -10 -4
-10 -6 0 -11 5 -11 10 0 6 2 10 4 10 3 0 8 -4 11 -10z m275 -295 c0 -16 -6
-25 -15 -25 -18 0 -20 21 -3 38 17 17 18 16 18 -13z m12670 -402 c-18 -32 -41
-67 -52 -78 -13 -12 -9 -2 9 25 17 25 38 60 47 78 9 17 19 32 22 32 3 0 -8
-26 -26 -57z m-89 -88 c-45 -82 -52 -103 -20 -65 15 18 13 11 -7 -25 -45 -81
-74 -122 -74 -102 0 16 -20 26 -20 10 0 -5 -10 -19 -21 -33 -19 -22 -19 -21 2
15 43 75 170 275 176 275 2 0 -14 -34 -36 -75z m-12667 35 c7 -7 -8 -10 -43
-10 -48 0 -52 2 -40 16 14 17 64 13 83 -6z m92 -27 c-3 -3 -13 -3 -22 1 -13 5
-14 9 -3 22 11 14 13 14 22 -1 5 -9 6 -19 3 -22z m-36 -13 c12 -8 9 -10 -13
-10 -16 0 -26 4 -22 10 8 12 16 12 35 0z m11130 -194 c0 -2 -8 -10 -17 -17
-16 -13 -17 -12 -4 4 13 16 21 21 21 13z m-1851 -143 c-26 -42 -173 -228 -187
-237 -5 -3 2 16 15 42 16 31 23 60 21 85 -2 35 2 42 37 69 60 46 128 88 133
83 2 -2 -6 -21 -19 -42z m-249 -300 c0 -5 -30 -35 -66 -67 l-67 -60 24 41 c13
22 41 52 64 66 47 30 45 29 45 20z m-2596 -187 c-3 -9 -12 -12 -22 -9 -15 6
-9 11 25 22 1 1 0 -5 -3 -13z m638 -52 c3 -29 -1 -41 -29 -70 l-33 -35 0 36
c0 45 25 105 43 105 9 0 16 -13 19 -36z m-1106 -181 c-13 -14 -25 9 -13 28 12
20 12 20 15 -1 2 -12 1 -24 -2 -27z m21 -25 c-3 -7 -5 -2 -5 12 0 14 2 19 5
13 2 -7 2 -19 0 -25z m-5648 -206 c19 -9 36 -22 38 -29 5 -14 -67 -39 -76 -26
-3 5 -23 21 -43 35 -21 13 -35 28 -31 31 12 13 78 7 112 -11z m3209 -346 c-21
-6 -45 -21 -53 -33 -8 -11 -26 -24 -40 -27 -26 -7 -33 -20 -15 -31 6 -3 10
-14 10 -23 0 -11 -7 -5 -19 15 -15 24 -28 32 -53 35 -18 2 -32 7 -31 12 4 21
128 65 183 64 l55 0 -37 -12z m938 -10 c18 -19 18 -30 0 -23 -9 4 -17 -1 -19
-11 -3 -9 -5 -2 -6 16 -1 35 4 39 25 18z m-1196 -71 c-7 -8 -17 -12 -23 -8 -6
4 -3 9 9 14 27 11 28 11 14 -6z m670 -25 c-15 -28 -12 -33 15 -26 31 8 33 -9
4 -25 -21 -11 -38 0 -39 24 0 5 -4 5 -10 2 -16 -10 -11 17 6 36 21 23 38 15
24 -11z m-905 -98 c-8 -8 -25 10 -19 20 4 6 9 5 15 -3 4 -7 6 -15 4 -17z m-55
-17 c0 -9 -6 -12 -15 -9 -8 4 -12 10 -9 15 8 14 24 10 24 -6z m-40 -36 c0 -12
-38 -17 -49 -6 -8 8 -5 15 11 23 22 12 37 4 38 -17z m-93 -35 c6 -17 -46 -47
-81 -46 -60 0 -60 3 -6 32 56 30 80 34 87 14z m233 -185 c0 -5 -4 -9 -10 -9
-5 0 -10 7 -10 16 0 8 5 12 10 9 6 -3 10 -10 10 -16z m-596 -5 c5 -14 4 -15
-9 -4 -17 14 -19 20 -6 20 5 0 12 -7 15 -16z m-675 -741 c2 -2 0 -3 -5 -3 -5
0 -22 12 -39 26 l-30 26 35 -23 c19 -12 37 -24 39 -26z m1683 -10 c3 -16 8
-37 13 -48 5 -16 3 -15 -13 5 -12 14 -20 37 -19 51 2 33 13 29 19 -8z m10598
33 c0 -2 -7 -9 -15 -16 -12 -10 -15 -10 -15 4 0 9 7 16 15 16 8 0 15 -2 15 -4z
m-10570 -26 c0 -11 -2 -20 -4 -20 -2 0 -6 9 -9 20 -3 11 -1 20 4 20 5 0 9 -9
9 -20z m-1694 -66 c18 -14 18 -14 -6 -3 -31 14 -36 19 -24 19 6 0 19 -7 30
-16z m1694 -54 c0 -13 -1 -13 -10 0 -5 8 -10 22 -10 30 0 13 1 13 10 0 5 -8
10 -22 10 -30z m-1640 -220 c0 -11 -14 -11 -50 0 -22 7 -21 8 13 9 20 1 37 -3
37 -9z m119 -27 c3 -1 -19 -2 -47 -1 -51 3 -68 13 -34 20 15 4 70 -9 81 -19z
m701 -98 c0 -14 -4 -25 -10 -25 -11 0 -14 33 -3 43 11 11 13 8 13 -18z m-163
-25 c-12 -26 -15 -29 -21 -15 -4 11 0 25 10 37 23 25 27 17 11 -22z m1291
-337 c-10 -2 -26 -2 -35 0 -10 3 -2 5 17 5 19 0 27 -2 18 -5z m67 -73 c7 -12
-19 -12 -55 0 -22 7 -21 8 12 9 20 1 40 -3 43 -9z m-52 -37 c-7 -2 -19 -2 -25
0 -7 3 -2 5 12 5 14 0 19 -2 13 -5z m72 -21 c-3 -3 -11 0 -18 7 -9 10 -8 11 6
5 10 -3 15 -9 12 -12z m-25 -10 c0 -4 -16 -6 -35 -4 -19 2 -35 6 -35 8 0 2 16
4 35 4 19 0 35 -4 35 -8z m40 -47 c0 -19 -4 -35 -10 -35 -5 0 -10 6 -10 14 0
8 -8 17 -17 19 -14 4 -12 5 5 6 12 1 22 7 22 16 0 8 2 15 5 15 3 0 5 -16 5
-35z m-304 -335 c11 0 9 -6 -6 -22 l-21 -23 20 -3 c18 -3 19 -5 7 -18 -25 -24
-39 -17 -32 17 3 17 7 43 7 58 1 17 3 20 6 9 2 -10 11 -18 19 -18z m-49 -503
c-6 -20 -27 -19 -27 2 0 14 5 19 15 14 9 -3 14 -10 12 -16z m198 -177 c3 -6
-1 -7 -9 -4 -18 7 -21 14 -7 14 6 0 13 -4 16 -10z m42 4 c-3 -3 -12 -4 -19 -1
-8 3 -5 6 6 6 11 1 17 -2 13 -5z m-27 -68 c0 -2 -7 -6 -15 -10 -8 -3 -15 -1
-15 4 0 6 7 10 15 10 8 0 15 -2 15 -4z m-278 -263 c-3 -16 -7 -22 -10 -15 -4
13 4 42 11 42 2 0 2 -12 -1 -27z m29 -50 c5 -15 11 -44 13 -65 3 -38 3 -38
-34 -38 l-37 0 7 38 c9 43 27 92 35 92 3 0 10 -12 16 -27z m-3326 -125 c0 -37
-3 -43 -32 -55 -37 -14 -41 -8 -17 25 8 12 10 22 5 22 -20 0 -11 31 12 40 12
5 24 9 27 9 3 1 5 -18 5 -41z m-106 -10 c-14 -28 -40 -58 -49 -58 -6 0 -30 44
-30 55 0 5 58 23 78 24 10 1 10 -4 1 -21z m156 12 c-3 -5 -12 -10 -18 -10 -7
0 -6 4 3 10 19 12 23 12 15 0z m1951 -82 c-9 -13 -30 -35 -48 -48 l-31 -23 29
39 c44 60 85 85 50 32z m-2126 -114 c14 -35 15 -34 -30 -34 -45 0 -44 -1 -28
35 15 33 46 32 58 -1z m117 -11 c2 -6 -11 -12 -30 -15 -30 -3 -33 -1 -29 18 3
18 8 21 30 15 14 -4 27 -12 29 -18z m-19 -39 c12 -4 22 -13 22 -21 0 -11 -6
-14 -22 -9 -13 3 -29 6 -35 6 -7 0 -13 7 -13 15 0 16 12 18 48 9z m1982 -305
c0 -18 -4 -28 -10 -24 -5 3 -10 20 -10 36 0 18 4 28 10 24 6 -3 10 -20 10 -36z
m-77 -124 c-3 -8 -9 -15 -14 -15 -10 0 -12 24 -3 33 11 11 24 -3 17 -18z m148
-442 c-6 -10 -20 -31 -33 -46 l-23 -28 1 32 c1 29 19 46 62 58 1 1 -2 -7 -7
-16z m-117 -154 c-53 -66 -64 -77 -64 -57 0 11 98 118 108 118 2 0 -18 -27
-44 -61z m6276 -295 c0 -2 -14 -4 -31 -4 -16 0 -28 4 -25 9 5 8 56 3 56 -5z
m47 10 c-3 -3 -12 -4 -19 -1 -8 3 -5 6 6 6 11 1 17 -2 13 -5z m-6897 -373 c12
-24 13 -88 2 -95 -5 -3 -16 10 -25 29 -10 22 -26 37 -43 41 l-26 7 29 18 c36
24 50 24 63 0z m-20 -168 c0 -22 -2 -25 -10 -13 -13 20 -13 40 0 40 6 0 10
-12 10 -27z m100 -263 c5 8 10 10 10 4 0 -6 11 -11 25 -11 14 0 29 -3 32 -7 9
-9 -66 -84 -91 -92 -12 -4 -30 -14 -41 -24 -11 -9 -33 -21 -50 -24 -28 -7 -29
-6 -14 11 80 94 89 109 89 137 0 28 1 29 15 10 13 -16 16 -17 25 -4z m-175
-200 c-10 -11 -22 -17 -27 -14 -12 8 11 34 30 34 13 0 12 -3 -3 -20z m-58 -56
c3 -8 0 -21 -7 -27 -10 -10 -12 -8 -7 6 4 11 1 17 -9 17 -8 0 -12 5 -9 10 9
15 25 12 32 -6z"/>
<path d="M16713 19413 c-33 -6 -28 -21 11 -37 18 -7 43 -28 56 -45 28 -40 34
-35 20 18 -9 34 -15 41 -36 41 -19 0 -25 4 -20 15 3 8 2 14 -2 14 -4 -1 -17
-4 -29 -6z"/>
<path d="M16650 19365 c0 -7 -8 -19 -17 -24 -16 -9 -16 -10 4 -11 31 0 53 10
53 25 0 7 -7 16 -16 19 -22 8 -24 8 -24 -9z"/>
<path d="M4602 19174 c-13 -9 -27 -27 -32 -40 -12 -30 -47 -44 -111 -44 -35 0
-49 -4 -49 -14 0 -17 22 -26 65 -26 43 0 95 -11 95 -20 0 -4 -18 -15 -40 -25
-22 -10 -40 -22 -40 -26 0 -5 26 3 58 17 31 14 98 38 147 53 88 26 90 27 93
59 2 19 -4 44 -13 58 -14 21 -23 24 -83 24 -46 0 -75 -5 -90 -16z"/>
<path d="M12906 19123 c-11 -28 17 -44 92 -50 93 -8 93 7 1 41 -83 31 -85 31
-93 9z"/>
<path d="M22472 18499 c-18 -12 -32 -22 -30 -24 2 -1 22 0 46 3 32 3 42 8 40
20 -5 23 -20 24 -56 1z"/>
<path d="M2370 17254 c-10 -17 -11 -28 -4 -32 81 -53 166 -103 170 -99 7 6
-128 155 -142 156 -6 1 -17 -11 -24 -25z"/>
<path d="M18164 16233 c-9 -10 -49 -32 -88 -50 -39 -18 -73 -39 -74 -48 -3
-12 10 -8 54 16 31 18 85 41 118 50 34 10 55 18 47 18 -11 1 -10 5 5 16 18 14
17 14 -13 15 -17 0 -39 -8 -49 -17z"/>
<path d="M18414 16185 c4 -11 -1 -15 -19 -15 -14 0 -25 -4 -25 -9 0 -12 41
-11 57 2 7 5 24 6 38 3 14 -4 25 -2 25 4 0 5 -5 10 -11 10 -5 0 -7 5 -4 10 4
6 -9 10 -30 10 -29 0 -36 -3 -31 -15z"/>
<path d="M18514 16155 c-19 -15 -19 -15 0 -30 21 -16 66 -21 66 -7 0 4 -5 13
-12 20 -9 9 -5 12 18 13 25 0 26 2 9 9 -31 13 -59 11 -81 -5z"/>
<path d="M18790 16160 c0 -6 -10 -15 -22 -20 -19 -7 -16 -9 20 -9 36 -1 43 2
40 16 -4 19 -38 31 -38 13z"/>
<path d="M17906 16081 c-10 -11 -16 -26 -14 -33 3 -8 11 -2 23 15 21 33 15 45
-9 18z"/>
<path d="M18979 15992 c5 -10 17 -24 25 -32 13 -10 16 -10 16 3 0 10 6 14 15
11 27 -11 16 5 -15 21 -40 21 -53 20 -41 -3z"/>
<path d="M19000 15910 c0 -5 14 -7 33 -3 45 8 47 13 4 13 -20 0 -37 -4 -37
-10z"/>
<path d="M19165 15848 c-9 -26 2 -53 26 -59 39 -11 151 -10 144 1 -3 6 -23 10
-44 10 -26 0 -51 9 -80 30 -29 21 -43 27 -46 18z"/>
<path d="M17460 15780 c-8 -5 -18 -6 -23 -3 -5 3 -7 0 -5 -8 3 -8 13 -13 24
-12 10 1 26 -3 36 -8 23 -12 23 3 0 24 -11 10 -22 13 -32 7z"/>
<path d="M17731 15684 c0 -11 3 -14 6 -6 3 7 2 16 -1 19 -3 4 -6 -2 -5 -13z"/>
<path d="M15250 14459 c0 -5 5 -7 10 -4 6 3 10 8 10 11 0 2 -4 4 -10 4 -5 0
-10 -5 -10 -11z"/>
<path d="M120 13849 l0 -32 20 26 c25 32 25 37 0 37 -16 0 -20 -7 -20 -31z"/>
<path d="M130 13510 c0 -6 11 -8 28 -4 39 10 40 14 4 14 -18 0 -32 -5 -32 -10z"/>
<path d="M92 13118 c-16 -16 -15 -28 3 -28 8 0 15 2 15 4 0 2 3 11 6 20 7 19
-7 21 -24 4z"/>
<path d="M9370 12190 c-13 -8 -12 -10 3 -10 9 0 17 5 17 10 0 12 -1 12 -20 0z"/>
<path d="M9253 12183 c-34 -4 -46 -22 -15 -24 14 0 14 -2 -3 -9 -18 -8 -18 -9
-2 -9 10 -1 25 6 33 14 9 8 26 15 40 15 13 0 24 5 24 10 0 10 -15 10 -77 3z"/>
<path d="M8100 11709 c-13 -24 -8 -34 15 -26 16 7 21 47 5 47 -5 0 -14 -9 -20
-21z"/>
<path d="M7311 11437 c-18 -23 -10 -71 13 -75 15 -3 18 0 13 17 -2 11 0 22 7
25 8 3 8 7 0 13 -6 4 -13 14 -15 22 -4 11 -7 10 -18 -2z"/>
<path d="M14746 11101 c-21 -22 -35 -44 -32 -50 14 -22 32 -10 58 39 16 28 24
50 20 50 -4 0 -25 -18 -46 -39z"/>
<path d="M5945 10940 c20 -22 31 -20 22 5 -4 8 -14 15 -23 15 -16 0 -16 -2 1
-20z"/>
<path d="M5635 10915 c7 -33 12 -41 21 -33 3 4 -2 19 -11 35 l-16 28 6 -30z"/>
<path d="M5400 10784 c1 -20 18 -34 33 -28 18 7 23 24 8 24 -5 0 -16 3 -25 6
-9 3 -16 2 -16 -2z"/>
<path d="M14423 10617 c-36 -41 -127 -197 -119 -205 3 -3 7 -3 9 -1 2 2 17 22
33 44 42 55 118 185 112 191 -3 2 -19 -10 -35 -29z"/>
<path d="M1270 10506 c0 -17 38 -28 46 -14 7 11 -13 28 -33 28 -7 0 -13 -6
-13 -14z"/>
<path d="M1170 10416 c0 -15 38 -29 53 -19 12 7 -20 33 -40 33 -7 0 -13 -6
-13 -14z"/>
<path d="M1275 10350 c-18 -19 -17 -20 1 -20 11 0 25 9 32 20 10 16 10 20 -1
20 -8 0 -22 -9 -32 -20z"/>
<path d="M1540 10195 c0 -8 14 -21 30 -30 36 -19 38 -14 6 19 -27 30 -36 32
-36 11z"/>
<path d="M1577 10100 c3 -11 9 -20 14 -20 11 0 11 3 3 24 -9 23 -23 20 -17 -4z"/>
<path d="M1635 10086 c-15 -11 -17 -18 -9 -26 8 -8 14 -7 23 4 20 24 9 39 -14
22z"/>
<path d="M1780 9905 c0 -10 7 -15 18 -13 21 4 19 22 -2 26 -10 2 -16 -3 -16
-13z"/>
<path d="M1950 9836 c0 -19 5 -23 27 -22 35 1 40 20 8 34 -34 16 -35 16 -35
-12z"/>
<path d="M4115 9800 c22 -10 63 -21 90 -24 49 -5 48 -5 -25 19 -87 29 -123 32
-65 5z"/>
<path d="M3960 9666 c0 -16 6 -26 14 -26 9 0 12 7 9 20 -8 31 -23 34 -23 6z"/>
<path d="M4100 9662 c0 -10 154 -152 164 -152 3 0 2 8 -3 18 -5 9 -14 36 -20
59 -6 22 -20 52 -31 65 l-19 23 -1 -39 0 -38 -45 36 c-25 21 -45 33 -45 28z"/>
<path d="M4121 9536 c-9 -11 -8 -15 5 -20 23 -9 24 -8 24 14 0 23 -13 26 -29
6z"/>
<path d="M4193 9435 c0 -9 5 -14 11 -12 21 8 82 -32 141 -92 33 -34 63 -61 67
-61 4 0 8 9 8 20 0 14 7 20 21 20 13 0 18 4 13 12 -5 7 5 2 21 -10 63 -49 120
-82 135 -79 8 2 33 -9 55 -23 22 -15 46 -30 53 -34 23 -14 12 11 -28 62 -22
27 -51 69 -66 93 l-26 44 6 -57 6 -57 -71 40 c-39 22 -77 38 -85 35 -17 -7
-183 74 -203 98 -17 21 -58 21 -58 1z"/>
<path d="M4163 9355 c-20 -23 -16 -55 7 -55 11 0 20 5 20 10 0 6 -4 10 -9 10
-5 0 -8 11 -5 25 5 29 4 30 -13 10z"/>
<path d="M2190 9350 c8 -5 24 -10 35 -10 17 0 17 2 5 10 -8 5 -24 10 -35 10
-17 0 -17 -2 -5 -10z"/>
<path d="M4265 9280 c5 -84 41 -180 67 -180 23 0 90 -33 106 -53 10 -12 7 -16
-19 -21 -27 -5 -30 -8 -19 -21 14 -16 35 -21 25 -5 -3 5 10 3 29 -5 92 -39 87
-2 -13 94 -73 70 -161 189 -175 236 -3 11 -4 -9 -1 -45z"/>
<path d="M2305 9140 c3 -5 15 -10 26 -10 11 0 17 5 14 10 -3 6 -15 10 -26 10
-11 0 -17 -4 -14 -10z"/>
<path d="M2337 9064 c7 -18 44 -18 69 1 17 13 17 14 2 15 -10 0 -18 -6 -18
-12 0 -9 -3 -9 -8 -3 -11 17 -52 16 -45 -1z"/>
<path d="M4594 9056 c-3 -8 4 -33 17 -56 24 -43 56 -53 79 -25 16 19 33 19 70
0 17 -9 30 -12 30 -7 0 10 -133 87 -168 97 -15 4 -24 2 -28 -9z"/>
<path d="M2278 9023 c6 -2 10 -9 6 -14 -3 -5 2 -9 10 -9 9 0 16 7 16 15 0 9
-9 15 -22 14 -13 0 -17 -3 -10 -6z"/>
<path d="M4260 8920 c-11 -7 -7 -10 18 -10 20 0 31 4 27 10 -8 13 -26 13 -45
0z"/>
<path d="M4295 8890 c3 -5 15 -10 26 -10 10 0 19 5 19 10 0 6 -12 10 -26 10
-14 0 -23 -4 -19 -10z"/>
<path d="M4371 8825 c0 -11 4 -27 9 -35 9 -13 10 -13 9 0 0 8 -4 24 -9 35 l-9
20 0 -20z"/>
<path d="M5030 8631 c0 -13 253 -241 260 -234 5 6 -186 190 -232 224 -16 11
-28 16 -28 10z"/>
<path d="M5140 8622 c0 -4 14 -21 30 -37 17 -16 30 -36 30 -45 0 -17 110 -113
119 -104 3 2 -16 26 -41 52 -25 26 -58 64 -73 85 -28 37 -65 66 -65 49z"/>
<path d="M5240 8601 c0 -10 6 -32 13 -48 14 -34 115 -148 123 -140 3 3 -6 28
-20 56 -14 28 -26 56 -26 64 0 13 -70 87 -83 87 -4 0 -7 -8 -7 -19z"/>
<path d="M5386 8298 l26 -53 -26 24 c-39 36 -32 17 18 -47 124 -160 139 -127
23 51 -59 89 -80 101 -41 25z"/>
<path d="M5506 8168 c25 -44 97 -138 105 -138 16 0 10 16 -21 55 -16 21 -30
41 -30 44 0 4 -9 17 -20 29 -22 24 -46 30 -34 10z"/>
<path d="M5720 7633 c0 -28 115 -190 131 -186 10 3 165 -249 214 -348 39 -77
84 -144 92 -136 2 3 -23 56 -57 119 -92 169 -314 532 -318 520 -2 -6 4 -24 13
-41 24 -47 9 -37 -20 13 -26 45 -55 76 -55 59z"/>
<path d="M9400 6758 c-14 -6 -74 -25 -135 -42 -75 -22 -110 -37 -110 -46 0
-33 153 -17 204 21 15 11 54 25 88 32 82 17 93 31 18 24 -40 -3 -52 -2 -37 4
12 4 22 11 22 14 0 8 -22 5 -50 -7z"/>
<path d="M6240 6746 c0 -12 80 -168 80 -156 0 18 -66 160 -75 160 -3 0 -5 -2
-5 -4z"/>
<path d="M3920 6692 c0 -5 6 -16 13 -26 12 -16 14 -16 26 -2 7 8 10 20 6 26
-7 12 -45 14 -45 2z"/>
<path d="M3905 6570 c-18 -35 -11 -39 16 -7 21 25 24 37 9 37 -5 0 -16 -13
-25 -30z"/>
<path d="M3810 6475 c-18 -36 -30 -68 -27 -72 7 -7 51 45 52 62 1 5 5 23 9 38
15 51 0 38 -34 -28z"/>
<path d="M2384 6236 c-22 -17 -11 -35 13 -20 19 12 29 34 16 34 -5 0 -18 -6
-29 -14z"/>
<path d="M3603 5913 c-13 -2 -23 -7 -23 -11 0 -12 40 -33 50 -27 12 7 14 46 3
44 -5 -1 -18 -4 -30 -6z"/>
<path d="M3395 5754 c-19 -45 -19 -54 0 -54 18 0 35 31 35 64 0 37 -17 32 -35
-10z"/>
<path d="M3532 5738 c-14 -14 -16 -88 -3 -88 12 0 23 27 28 68 5 33 -4 41 -25
20z"/>
<path d="M6396 5441 c-9 -17 -37 -56 -62 -87 -54 -66 -53 -85 1 -22 43 51 90
127 82 134 -3 3 -13 -8 -21 -25z"/>
<path d="M2106 4184 c-34 -43 -37 -62 -13 -78 22 -14 51 3 55 33 2 12 10 25
18 28 8 3 14 11 14 19 0 10 -7 13 -25 8 -20 -5 -24 -3 -19 10 9 25 2 19 -30
-20z"/>
</g>
</svg>
